<?xml version="1.0" encoding="UTF-8"?>
<svg width="78px" height="87px" viewBox="0 0 78 87" version="1.1" xmlns="http://www.w3.org/2000/svg" xmlns:xlink="http://www.w3.org/1999/xlink">
    <!-- Generator: Sketch 57.1 (83088) - https://sketch.com -->
    <title>Group</title>
    <desc>Created with Sketch.</desc>
    <g id="Web" stroke="none" stroke-width="1" fill="none" fill-rule="evenodd">
        <g id="Desktop-HD-Copy" transform="translate(-696.000000, -2570.000000)" fill="#4B49FF" fill-rule="nonzero">
            <g id="Group-18" transform="translate(567.000000, 2516.000000)">
                <g id="Group-10">
                    <g id="Group" transform="translate(129.000000, 54.000000)">
                        <path d="M14.117,23.357 L14.113,23.357 C14.132,23.378 14.148,23.398 14.167,23.421 C14.148,23.398 14.135,23.376 14.117,23.357 Z" id="Path"></path>
                        <path d="M12.605,26.224 C12.576,25.523 12.481,24.882 12.334,24.311 L8.345,24.311 C8.202,24.881 8.105,25.526 8.075,26.224 L12.605,26.224 Z" id="Path"></path>
                        <path d="M10.341,21.6369988 C9.742,21.636 9.105,22.277 8.656,23.357 L12.023,23.356 C11.574,22.277 10.941,21.636 10.341,21.6369988 Z" id="Path"></path>
                        <path d="M14.113,23.357 C13.654,22.834 13.091,22.405 12.453,22.11 C12.682,22.47 12.881,22.889 13.046,23.357 L14.113,23.357 Z" id="Path"></path>
                        <path d="M13.561,26.224 L15.342,26.222 C15.28,25.536 15.087,24.89 14.779,24.311 L13.323,24.311 C13.454,24.904 13.534,25.545 13.561,26.224 Z" id="Path"></path>
                        <path d="M15.349,26.224 L15.342,26.222 C15.355,26.368 15.369,26.514 15.369,26.665 C15.369,26.516 15.357,26.369 15.349,26.224 Z" id="Path"></path>
                        <path d="M12.455,31.22 C13.06,30.938 13.603,30.534 14.049,30.047 L13.022,30.047 C12.862,30.484 12.671,30.879 12.455,31.22 Z" id="Path"></path>
                        <path d="M10.341,31.693 C10.925,31.693 11.546,31.08 11.991,30.048 L8.691,30.048 C9.137,31.08 9.756,31.693 10.341,31.693 Z" id="Path"></path>
                        <path d="M13.302,29.091 L14.739,29.091 C15.059,28.514 15.273,27.867 15.343,27.179 L13.558,27.179 C13.528,27.856 13.441,28.5 13.302,29.091 Z" id="Path"></path>
                        <path d="M6.563,23.357 C6.546,23.377 6.53,23.398 6.511,23.421 C6.532,23.398 6.547,23.376 6.569,23.357 L6.563,23.357 Z" id="Path"></path>
                        <path d="M8.078,27.179 C8.112,27.882 8.214,28.524 8.362,29.091 L12.318,29.091 C12.466,28.524 12.569,27.879 12.603,27.18 L8.078,27.179 Z" id="Path"></path>
                        <path d="M5.335,26.224 C5.32,26.37 5.312,26.516 5.312,26.665 C5.312,26.516 5.326,26.37 5.34,26.224 L5.335,26.224 Z" id="Path"></path>
                        <path d="M73.739,52.475 C75.26,46.671 75.315,40.487 73.753,34.521 C77.915,31.826 79.285,26.321 76.778,21.98 C74.271,17.638 68.82,16.072 64.405,18.329 C60.019,13.991 54.635,10.949 48.849,9.363 C48.604,4.404 44.518,0.457 39.5,0.457 C34.488,0.457 30.409,4.393 30.15,9.341 C27.289,10.123 24.479,11.279 21.794,12.83 C19.105,14.382 16.7,16.237 14.591,18.325 C10.176,16.074 4.728,17.64 2.222,21.977 C-0.288,26.324 1.089,31.837 5.262,34.528 C3.741,40.329 3.685,46.513 5.247,52.479 C1.084,55.172 -0.286,60.678 2.222,65.02 C4.729,69.363 10.181,70.928 14.594,68.671 C18.981,73.01 24.365,76.052 30.151,77.636 C30.397,82.596 34.482,86.543 39.5,86.543 C44.513,86.543 48.591,82.606 48.849,77.659 C51.711,76.878 54.521,75.721 57.209,74.17 C59.897,72.618 62.301,70.763 64.409,68.677 C68.824,70.926 74.271,69.361 76.778,65.023 C79.287,60.676 77.91,55.166 73.739,52.475 Z M63.547,23.003 C64.766,21.788 66.736,21.789 67.953,23.003 L68.601,23.65 L69.244,23.003 C70.462,21.789 72.436,21.789 73.653,23.003 C74.867,24.222 74.868,26.195 73.65,27.411 L73.005,28.057 L68.6,32.462 L64.193,28.056 L63.547,27.411 C62.331,26.194 62.331,24.222 63.547,23.003 Z M48.406,12.738 C53.327,14.161 57.91,16.755 61.702,20.392 C59.422,22.925 58.67,26.549 59.84,29.816 L55.852,32.118 C52.373,27.112 46.93,24.14 41.183,23.649 L41.184,19.046 C44.591,18.428 47.353,15.97 48.406,12.738 Z M35.361,45.491 C36.505,46.356 37.927,46.872 39.468,46.872 C41.01,46.872 42.431,46.358 43.574,45.491 C45.701,46.359 49.789,48.502 48.687,50.487 C46.447,54.517 31.983,54.758 30.248,50.487 C29.396,48.384 33.235,46.359 35.361,45.491 Z M33.159,39.709 C33.159,36.226 35.984,33.401 39.469,33.401 C42.954,33.401 45.778,36.225 45.778,39.709 C45.778,43.191 42.954,46.017 39.469,46.017 C35.984,46.017 33.159,43.192 33.159,39.709 Z M36.909,9.887 C36.909,8.99 37.548,8.241 38.394,8.072 C39.205,6.88 39.586,5.828 39.586,5.828 C39.586,5.828 39.693,5.362 39.882,4.834 C39.9,4.751 39.93,4.675 39.964,4.6 C40.145,4.251 40.507,4.01 40.926,4.01 C41.423,4.01 41.843,4.351 41.963,4.813 C41.975,4.861 41.985,4.913 41.991,4.965 C42.189,6.177 41.769,7.35 41.443,8.034 L43.457,8.034 C44.482,8.034 45.312,8.863 45.312,9.887 L45.312,12.283 C45.312,13.308 44.482,14.136 43.457,14.136 L38.763,14.137 C37.737,14.136 36.907,13.309 36.909,12.283 L36.907,9.888 L36.909,9.888 L36.909,9.887 Z M34.057,9.248 C34.056,8.575 34.6,8.035 35.27,8.034 C35.939,8.034 36.481,8.575 36.484,9.248 L36.484,12.926 C36.484,13.595 35.941,14.137 35.27,14.137 C34.6,14.136 34.056,13.596 34.056,12.927 L34.057,9.248 Z M23.477,15.744 C25.766,14.422 28.155,13.423 30.588,12.718 C31.638,15.961 34.403,18.424 37.818,19.047 L37.816,23.645 C34.985,23.883 32.162,24.73 29.538,26.245 C26.915,27.76 24.769,29.783 23.147,32.116 L19.162,29.816 C20.334,26.549 19.581,22.92 17.297,20.391 C19.125,18.635 21.186,17.066 23.477,15.744 Z M4.355,26.666 C4.355,23.365 7.039,20.68 10.34,20.6809997 C13.638,20.6809997 16.324,23.366 16.324,26.666 C16.324,29.964 13.637,32.65 10.34,32.65 C7.039,32.649 4.356,29.963 4.355,26.666 Z M15.311,64.287 C14.056,66.545 5.944,66.681 4.97,64.285 C4.492,63.103 6.645,61.971 7.838,61.481 C8.478,61.968 9.278,62.257 10.144,62.257 C11.006,62.257 11.805,61.968 12.446,61.481 C13.638,61.971 15.93,63.171 15.311,64.287 Z M6.603,58.241 C6.603,56.286 8.187,54.703 10.141,54.703 C12.094,54.703 13.677,56.286 13.677,58.241 C13.677,60.193 12.094,61.777 10.141,61.777 C8.187,61.777 6.603,60.194 6.603,58.241 Z M8.388,51.173 C7.132,46.067 7.179,40.803 8.407,35.83 C11.734,36.532 15.239,35.368 17.478,32.727 L21.468,35.03 C19.021,40.253 18.872,46.456 21.469,51.968 L17.48,54.271 C15.238,51.625 11.721,50.46 8.388,51.173 Z M30.595,74.263 C25.675,72.839 21.09,70.248 17.299,66.607 C19.579,64.076 20.331,60.45 19.162,57.185 L23.151,54.882 C26.629,59.887 32.072,62.86 37.818,63.351 L37.818,67.955 C34.41,68.576 31.65,71.031 30.595,74.263 Z M39.684,82.8 L38.019,80.929 C38.444,80.45 39.035,80.155 39.684,80.155 C40.334,80.155 40.923,80.451 41.35,80.931 L39.684,82.8 Z M41.784,80.442 C41.247,79.838 40.505,79.463 39.683,79.463 C38.865,79.463 38.121,79.837 37.582,80.442 L36.788,79.551 C37.529,78.719 38.553,78.202 39.682,78.202 C40.813,78.202 41.835,78.719 42.578,79.55 L41.784,80.442 Z M42.988,79.092 C42.139,78.14 40.973,77.552 39.683,77.552 C38.394,77.552 37.226,78.14 36.38,79.091 L35.588,78.2 C36.637,77.022 38.085,76.291 39.684,76.2929959 C41.282,76.2929959 42.733,77.022 43.78,78.201 L42.988,79.092 Z M44.178,77.756 C43.026,76.463 41.438,75.661 39.684,75.661 C37.932,75.661 36.343,76.464 35.191,77.754 L34.401,76.864 C35.754,75.343 37.623,74.403 39.684,74.401 C41.747,74.401 43.616,75.343 44.971,76.864 L44.178,77.756 Z M45.369,76.419 C43.91,74.786 41.899,73.773 39.683,73.773 C37.467,73.773 35.456,74.786 33.998,76.419 L33.206,75.527 C34.866,73.666 37.156,72.511 39.683,72.511 C42.21,72.511 44.5,73.665 46.161,75.528 L45.369,76.419 Z M55.526,71.256 C53.236,72.577 50.846,73.577 48.414,74.284 C47.362,71.039 44.598,68.574 41.183,67.955 L41.183,63.356 C44.014,63.117 46.839,62.271 49.465,60.754 C52.088,59.24 54.233,57.217 55.855,54.883 L59.839,57.184 C58.668,60.451 59.419,64.078 61.703,66.61 C59.876,68.365 57.816,69.933 55.526,71.256 Z M61.523,54.272 L57.533,51.968 C59.981,46.747 60.13,40.545 57.533,35.032 L61.522,32.727 C63.763,35.375 67.279,36.539 70.613,35.827 C71.869,40.931 71.823,46.197 70.594,51.171 C67.267,50.47 63.762,51.631 61.523,54.272 Z M68.237,60.305 C68.236,60.529 68.203,60.747 68.143,60.952 L70.187,62.152 C70.615,61.719 71.209,61.453 71.867,61.452 C73.177,61.453 74.236,62.515 74.236,63.824 C74.236,65.132 73.174,66.194 71.867,66.195 C70.557,66.195 69.496,65.132 69.496,63.824 C69.496,63.598 69.527,63.382 69.589,63.173 L67.545,61.975 C67.115,62.409 66.521,62.676 65.863,62.675 C64.555,62.676 63.492,61.614 63.4939972,60.304 C63.492,58.994 64.556,57.933 65.863,57.933 C66.52,57.933 67.115,58.203 67.545,58.632 L69.589,57.432 C69.527,57.23 69.496,57.011 69.496,56.785 C69.496,55.474 70.558,54.415 71.867,54.415 C73.177,54.416 74.236,55.475 74.236,56.785 C74.236,58.095 73.174,59.156 71.865,59.156 C71.211,59.156 70.616,58.887 70.185,58.459 L68.141,59.657 C68.203,59.865 68.236,60.079 68.237,60.305 Z" id="Shape"></path>
                        <path d="M8.229,22.109 C7.59,22.405 7.028,22.832 6.57,23.357 L7.635,23.357 C7.8,22.888 7.999,22.47 8.229,22.109 Z" id="Path"></path>
                        <path d="M7.122,27.179 L5.34,27.179 C5.41,27.868 5.624,28.514 5.944,29.091 L7.381,29.091 C7.24,28.5 7.155,27.857 7.122,27.179 Z" id="Path"></path>
                        <path d="M6.634,30.048 C7.08,30.536 7.618,30.938 8.227,31.221 C8.011,30.879 7.821,30.486 7.662,30.048 L6.634,30.048 Z" id="Path"></path>
                        <path d="M7.359,24.311 L5.902,24.312 C5.593,24.89 5.4,25.539 5.339,26.224 L7.121,26.224 C7.146,25.545 7.227,24.904 7.359,24.311 Z" id="Path"></path>
                    </g>
                </g>
            </g>
        </g>
    </g>
</svg>