<?xml version="1.0" encoding="UTF-8"?>
<svg width="72px" height="76px" viewBox="0 0 72 76" version="1.1" xmlns="http://www.w3.org/2000/svg" xmlns:xlink="http://www.w3.org/1999/xlink">
    <!-- Generator: Sketch 57.1 (83088) - https://sketch.com -->
    <title>Group</title>
    <desc>Created with Sketch.</desc>
    <g id="Web" stroke="none" stroke-width="1" fill="none" fill-rule="evenodd">
        <g id="Desktop-HD-Copy" transform="translate(-242.000000, -2581.000000)" fill="#FFFFFF" fill-rule="nonzero">
            <g id="Group-8" transform="translate(109.000000, 2516.000000)">
                <g id="Group" transform="translate(133.000000, 65.000000)">
                    <g id="Shape">
                        <path d="M32.8604648,76 L65.7430352,76 C69.1970776,76 72,73.1937808 72,69.7321336 L72,6.2678664 C72,2.8063752 69.1986616,0 65.7430352,0 L12.5360344,0 C9.081992,0 6.2790696,2.7108912 6.2790696,6.0549448 C6.2790696,6.0549448 6.2790696,5.6316712 6.2790696,6.0549448 L6.2790696,7.511628 L59.074728,7.511628 C62.5347416,7.511628 65.3396368,10.3136424 65.3396368,13.7719984 L65.3396368,57.3675368 C65.3396368,60.7016864 62.7256368,63.427072 59.4418608,63.6173008 L59.4418608,17.5396672 C59.4418608,14.076664 56.6378328,11.2747256 53.1788888,11.2747256 L6.2629712,11.2747256 C2.8071152,11.2747256 0,14.0796352 0,17.5396672 L0,69.7350576 C0,73.1980608 2.804028,76 6.2629712,76 L32.8604648,76 Z M4.1860464,59.3017096 C4.1860464,58.1458232 5.120688,57.2087912 6.2748488,57.2087912 L51.0739888,57.2087912 C52.2276024,57.2087912 53.1627904,58.145128 53.1627904,59.3017096 L53.1627904,68.896092 C53.1627904,70.0519792 52.2281488,70.9890112 51.0739888,70.9890112 L6.2748488,70.9890112 C5.1212352,70.9890112 4.1860464,70.0526744 4.1860464,68.896092 L4.1860464,59.3017096 Z M4.1860464,22.5556912 C4.1860464,21.6297472 4.9299448,20.8791208 5.8564488,20.8791208 L18.8412256,20.8791208 C19.7637632,20.8791208 20.511628,21.6239936 20.511628,22.5556912 L20.511628,33.8179352 C20.511628,34.7438792 19.7677296,35.4945056 18.8412256,35.4945056 L5.8564488,35.4945056 C4.9339112,35.4945056 4.1860464,34.7496328 4.1860464,33.8179352 L4.1860464,22.5556912 Z M25.534884,22.9670096 C25.534884,22.0445248 26.288192,21.2967032 27.2009152,21.2967032 L51.4967592,21.2967032 C52.4168832,21.2967032 53.1627904,22.0392112 53.1627904,22.9670096 L53.1627904,23.3846392 C53.1627904,24.3071232 52.4094824,25.0549448 51.4967592,25.0549448 L27.2009152,25.0549448 C26.2807912,25.0549448 25.534884,24.3124376 25.534884,23.3846392 L25.534884,22.9670096 Z M25.534884,27.9779984 C25.534884,27.0555136 26.288192,26.307692 27.2009152,26.307692 L51.4967592,26.307692 C52.4168832,26.307692 53.1627904,27.0502 53.1627904,27.9779984 L53.1627904,28.395628 C53.1627904,29.3181128 52.4094824,30.0659344 51.4967592,30.0659344 L27.2009152,30.0659344 C26.2807912,30.0659344 25.534884,29.3234264 25.534884,28.395628 L25.534884,27.9779984 Z M25.534884,33.824152 C25.534884,32.901668 26.288192,32.1538464 27.2009152,32.1538464 L51.4967592,32.1538464 C52.4168832,32.1538464 53.1627904,32.8963536 53.1627904,33.824152 L53.1627904,34.2417816 C53.1627904,35.1642664 52.4094824,35.912088 51.4967592,35.912088 L27.2009152,35.912088 C26.2807912,35.912088 25.534884,35.16958 25.534884,34.2417816 L25.534884,33.824152 Z M4.1860464,42.1758008 C4.1860464,41.253316 4.935756,40.5054944 5.8577688,40.5054944 L51.4910688,40.5054944 C52.4143352,40.5054944 53.1627904,41.2480024 53.1627904,42.1758008 L53.1627904,42.5934304 C53.1627904,43.5159144 52.4130816,44.263736 51.4910688,44.263736 L5.8577688,44.263736 C4.9345016,44.263736 4.1860464,43.5212288 4.1860464,42.5934304 L4.1860464,42.1758008 Z M4.1860464,50.5274488 C4.1860464,49.604964 4.935756,48.8571432 5.8577688,48.8571432 L51.4910688,48.8571432 C52.4143352,48.8571432 53.1627904,49.5996504 53.1627904,50.5274488 L53.1627904,50.9450784 C53.1627904,51.8675632 52.4130816,52.6153848 51.4910688,52.6153848 L5.8577688,52.6153848 C4.9345016,52.6153848 4.1860464,51.8728768 4.1860464,50.9450784 L4.1860464,50.5274488 Z"></path>
                    </g>
                </g>
            </g>
        </g>
    </g>
</svg>