<?xml version="1.0" encoding="UTF-8"?>
<svg width="83px" height="83px" viewBox="0 0 83 83" version="1.1" xmlns="http://www.w3.org/2000/svg" xmlns:xlink="http://www.w3.org/1999/xlink">
    <!-- Generator: Sketch 57.1 (83088) - https://sketch.com -->
    <title>Group 23</title>
    <desc>Created with Sketch.</desc>
    <g id="Web" stroke="none" stroke-width="1" fill="none" fill-rule="evenodd">
        <g id="Desktop-HD-Copy" transform="translate(-678.000000, -2195.000000)" fill="#FFFFFF" fill-rule="nonzero">
            <g id="Group-6" transform="translate(552.000000, 2127.000000)">
                <g id="Group-23" transform="translate(126.000000, 68.000000)">
                    <path d="M41.5,0 C18.6161276,0 0,18.6165783 0,41.4989953 C0,64.3834217 18.6181369,83 41.5,83 C64.3818631,83 83,64.3834217 83,41.5010047 C83,18.6165783 64.3838724,0 41.5,0 Z M41.5,78.4186942 C26.5548562,78.4186942 13.6632129,69.4851478 7.86036603,56.6816036 C11.4268665,55.8477256 14.8808463,48.6281502 13.5225622,45.4634323 C11.7784933,41.4065655 12.9720151,35.0068027 17.1714438,29.6599366 C20.2356202,25.7597986 14.7823908,21.7551747 11.6056938,19.8724187 C16.9986443,12.4438715 25.0820422,7.09298666 34.4192408,5.27051105 C33.205626,8.68840632 31.9739276,14.545646 37.0293164,16.0466265 C44.2848843,18.200644 44.7369759,12.0902268 47.7589571,21.6386327 C49.0569623,25.7376958 43.7484022,28.3558719 42.6653917,33.0959159 C41.2267357,39.3952115 44.1683451,47.181422 50.0153965,45.1258624 C60.3271037,41.4989953 67.9664472,43.4078728 77.5146219,44.9349747 C77.7778396,44.9771709 78.0149366,45.0093205 78.2439963,45.0374513 C76.4557229,63.7404314 60.6626561,78.4186942 41.5,78.4186942 Z" id="Shape"></path>
                    <path d="M49.9742677,57.8748401 C41.2652255,51.0014738 35.206155,46.0455529 34.2019552,54.3363368 C33.9030862,56.8223622 30.6992107,55.3303437 28.0113823,56.3848379 C24.9868282,57.5703877 22.5739593,61.2379305 24.9808508,63.0626288 C29.5236594,66.508385 29.4140741,72.1095031 34.2019552,73.3998975 C38.9918288,74.6923081 45.8100265,78.0775772 45.8100265,68.0145172 C45.812019,64.3530232 58.6872948,64.7522389 49.9742677,57.8748401 Z" id="Path"></path>
                </g>
            </g>
        </g>
    </g>
</svg>