<?xml version="1.0" encoding="UTF-8"?>
<svg width="62px" height="73px" viewBox="0 0 62 73" version="1.1" xmlns="http://www.w3.org/2000/svg" xmlns:xlink="http://www.w3.org/1999/xlink">
    <!-- Generator: Sketch 57.1 (83088) - https://sketch.com -->
    <title>Group 22</title>
    <desc>Created with Sketch.</desc>
    <g id="Web" stroke="none" stroke-width="1" fill="none" fill-rule="evenodd">
        <g id="Desktop-HD-Copy" transform="translate(-246.000000, -2194.000000)" fill="#4B49FF" fill-rule="nonzero">
            <g id="Group-19" transform="translate(109.000000, 2126.000000)">
                <g id="Group-22" transform="translate(137.000000, 68.000000)">
                    <path d="M61.2095371,36.1538462 L54.8303794,26.3076923 C54.6784947,26 54.5266099,25.6923077 54.5266099,25.2307692 C53.3115323,10.8461538 41.6164098,0 27.3392473,0 C12.3026613,0 0,12.3846154 0,27.6923077 C0,36.5384615 4.02494475,45.3846154 10.8597566,51.2307692 C11.0116413,51.3846154 11.3154107,51.6923077 11.3154107,52.0769231 L11.3154107,66.6923077 C11.3154107,69 12.9861425,70.8461538 15.2644131,71.0769231 L36.9079839,73 C37.0598686,73 37.135811,73 37.2876957,73 C38.3508886,73 39.4140816,72.6153846 40.1735051,71.8461538 C41.0848133,71 41.6164098,69.8461538 41.6164098,68.6153846 L41.6164098,59.3076923 L48.2993369,59.3076923 C51.7926852,59.3076923 54.6784947,56.3846154 54.6784947,52.8461538 L54.6784947,43.8461538 L57.0327076,43.8461538 C58.8553241,43.8461538 60.5260559,42.8461538 61.3614218,41.2307692 C62.27273,39.6153846 62.1967877,37.6923077 61.2095371,36.1538462 Z M57.6402464,39.2307692 C57.5643041,39.3846154 57.4124194,39.6153846 57.0327076,39.6153846 L53.3115323,39.6153846 C51.7167429,39.6153846 50.3497805,40.9230769 50.3497805,42.6153846 L50.3497805,52.9230769 C50.3497805,54.0769231 49.4384723,55.0769231 48.2233946,55.0769231 L40.6291592,55.0769231 C38.8065427,55.0769231 37.2876957,56.6153846 37.2876957,58.4615385 L37.2117533,68.8461538 L15.4922402,66.8461538 L15.4922402,52.2307692 C15.4922402,50.6923077 14.808759,49.1538462 13.5936813,48.0769231 C7.82206243,43.0769231 4.25277181,35.3076923 4.25277181,27.7692308 C4.25277181,14.8461538 14.5809319,4.38413416 27.3392473,4.38413416 C39.3381392,4.30769231 49.2106452,13.4615385 50.2738381,25.6153846 C50.3497805,26.6153846 50.6535499,27.6153846 51.1851464,28.5384615 L57.6402464,38.4615385 C57.7921312,38.7692308 57.7161888,39.0769231 57.6402464,39.2307692 Z" id="Shape"></path>
                    <path d="M31,14.7955556 C31,13.2088889 29.6578947,12 28,12 C26.3421053,12 25,13.2844444 25,14.7955556 C25,15.8533333 25.6315789,16.8355556 26.5789474,17.2888889 L26.5789474,40.6355556 C25.6315789,41.0888889 25,42.0711111 25,43.1288889 C25,44.7155556 26.3421053,46 28,46 C29.6578947,46 31,44.7155556 31,43.1288889 C31,42.0711111 30.3684211,41.0888889 29.4210526,40.6355556 C28.7894737,40.3333333 28.7894737,32.5762963 29.4210526,17.3644444 C30.3684211,16.8355556 31,15.8533333 31,14.7955556 Z" id="Path"></path>
                    <path d="M19.9135135,19.4345679 C20.8216216,18.9753086 21.427027,17.9802469 21.427027,16.908642 C21.427027,15.3012346 20.1405405,14 18.627027,14 C17.1135135,14 15.7513514,15.3012346 15.7513514,16.908642 C15.7513514,17.9802469 16.3567568,18.9753086 17.2648649,19.4345679 L17.2648649,24.6395062 L21.3513514,24.6395062 L21.3513514,28.1604938 L15.372973,28.1604938 C14.9189189,27.2419753 13.9351351,26.6296296 12.8756757,26.6296296 C11.2864865,26.6296296 10,27.9308642 10,29.4617284 C10,31.0691358 11.2864865,32.3703704 12.8756757,32.3703704 C13.9351351,32.3703704 14.9189189,31.7580247 15.372973,30.8395062 L21.3513514,30.8395062 L21.3513514,34.3604938 L17.2648649,34.3604938 L17.2648649,39.5654321 C16.3567568,40.0246914 15.7513514,41.0197531 15.7513514,42.091358 C15.7513514,43.6987654 17.0378378,45 18.627027,45 C20.2162162,45 21.427027,43.6987654 21.427027,42.091358 C21.427027,41.0197531 20.8216216,40.0246914 19.9135135,39.5654321 L19.9135135,36.962963 L24,36.962963 L24,21.9604938 L19.9135135,21.9604938 L19.9135135,19.4345679 Z" id="Path"></path>
                    <path d="M44.1243243,25.6923077 C43.0648649,25.6923077 42.0810811,26.3076923 41.627027,27.2307692 L35.6486486,27.2307692 L35.6486486,23.6923077 L39.7351351,23.6923077 L39.7351351,18.4615385 C40.6432432,18 41.2486486,17 41.2486486,15.9230769 C41.2486486,14.3076923 39.9621622,13 38.372973,13 C36.7837838,13 35.572973,14.3076923 35.572973,15.9230769 C35.572973,17 36.1783784,18 37.0864865,18.4615385 L37.0864865,21.0769231 L33,21.0769231 L33,36 L37.1621622,36 L37.1621622,38.6153846 C36.2540541,39.0769231 35.6486486,40.0769231 35.6486486,41.1538462 C35.6486486,42.7692308 36.9351351,44 38.4486486,44 C40.0378378,44 41.3243243,42.6923077 41.3243243,41.1538462 C41.3243243,40.0769231 40.7189189,39.0769231 39.8108108,38.6153846 L39.8108108,33.3846154 L35.6486486,33.3846154 L35.6486486,29.8461538 L41.627027,29.8461538 C42.0810811,30.7692308 43.0648649,31.3846154 44.1243243,31.3846154 C45.7135135,31.3846154 47,30.0769231 47,28.5384615 C47,26.9230769 45.7135135,25.6923077 44.1243243,25.6923077 Z" id="Path"></path>
                </g>
            </g>
        </g>
    </g>
</svg>