<?xml version="1.0" encoding="UTF-8"?>
<svg width="79px" height="79px" viewBox="0 0 79 79" version="1.1" xmlns="http://www.w3.org/2000/svg" xmlns:xlink="http://www.w3.org/1999/xlink">
    <!-- Generator: Sketch 57.1 (83088) - https://sketch.com -->
    <title>Shape</title>
    <desc>Created with Sketch.</desc>
    <g id="Web" stroke="none" stroke-width="1" fill="none" fill-rule="evenodd">
        <g id="Desktop-HD-Copy" transform="translate(-1114.000000, -2200.000000)" fill="#FFFFFF">
            <g id="Group-20" transform="translate(985.000000, 2125.000000)">
                <g id="Group" transform="translate(124.000000, 70.000000)">
                    <g id="Shape">
                        <g transform="translate(5.200000, 5.600000)">
                            <path d="M78.8,0 L78.8,61.6 L45.2,61.6 L22.8,78.4 L22.8,61.6 L0.4,61.6 L0.4,0 L78.8,0 Z M59.2,14 L59.2,8.4 L53.6,8.4 L53.6,14 L45.2,14 L45.2,19.6 L59.0768,19.6 C58.934,21.3052 58.6652,22.9964 58.262,24.6624 C57.6684,27.118 56.7864,29.498 55.658,31.7548 C55.3052,31.3348 54.9636,30.9064 54.6304,30.4752 C53.1212,28.5124 51.794,26.4152 50.646,24.2228 C50.5956,24.122 50.5424,24.0212 50.4892,23.9204 L45.5108,26.4796 L45.676,26.8016 L45.8524,27.1376 C47.7004,30.5928 49.9376,33.8688 52.5948,36.7584 C52.0404,37.5144 51.4552,38.248 50.842,38.9564 C49.6632,40.32 48.3808,41.5912 47.0088,42.7588 C46.4124,43.2656 45.7936,43.7472 45.1664,44.2176 C44.794,44.4864 44.794,44.4864 44.4188,44.7496 C44.038,45.01 44.038,45.01 43.6544,45.2648 L46.7456,49.9352 C48.7224,48.6248 50.5816,47.1604 52.3008,45.528 C53.8996,44.0104 55.3724,42.364 56.7052,40.6112 C58.108,41.7228 59.606,42.7112 61.2048,43.5176 C62.07,43.9516 62.9604,44.3212 63.8732,44.6432 L65.7268,39.3568 C65.1388,39.1524 64.5648,38.9228 64.0048,38.654 C62.49,37.926 61.0872,36.9768 59.7908,35.9044 C61.4288,32.9868 62.7,29.8648 63.5456,26.6196 C64.1448,24.3152 64.52,21.9688 64.6908,19.6 L67.6,19.6 L67.6,14 L59.2,14 Z M22.8,16.8 L22.8,16.8 L19.1068,16.8 L7.106,44.8 L13.1988,44.8 L14.4,42 L15.6012,39.2 L29.9988,39.2 L32.4012,44.8 L38.494,44.8 L26.4932,16.8 L22.8,16.8 Z M18.0008,33.6 L27.5992,33.6 L22.8,22.4 L18.0008,33.6 Z"></path>
                        </g>
                    </g>
                </g>
            </g>
        </g>
    </g>
</svg>