<?xml version="1.0" encoding="UTF-8"?>
<svg width="25px" height="25px" viewBox="0 0 25 25" version="1.1" xmlns="http://www.w3.org/2000/svg" xmlns:xlink="http://www.w3.org/1999/xlink">
    <!-- Generator: Sketch 57.1 (83088) - https://sketch.com -->
    <title>Group 2</title>
    <desc>Created with Sketch.</desc>
    <g id="Web" stroke="none" stroke-width="1" fill="none" fill-rule="evenodd">
        <g id="Desktop-HD-Copy-3" transform="translate(-795.000000, -2690.000000)">
            <g id="Group-5" transform="translate(661.000000, 2634.000000)">
                <g id="Group-2" transform="translate(134.400000, 56.800000)">
                    <circle id="Oval" fill="#060606" cx="12" cy="12" r="12"></circle>
                    <g id="Group" transform="translate(5.600000, 6.400000)" fill="#FFFFFF" fill-rule="nonzero">
                        <polygon id="Path" points="9.55240541 10.0289005 11.9848378 11.2612891 11.9848378 0.000739336493 9.55240541 1.23312796"></polygon>
                        <path d="M4.1262973,4.95776303 C4.1262973,4.51123223 4.23554054,4.08361137 4.43397297,3.70953555 L1.31245946,3.70953555 C0.609243243,3.70953555 0.0151621622,4.36063507 0.0151621622,5.13133649 L0.0151621622,6.23678673 C0.0151621622,7.00748815 0.609243243,7.65858768 1.31245946,7.65858768 L4.49381081,7.65858768 C4.25772973,7.26019905 4.12632432,6.79367773 4.12632432,6.30429384 L4.12632432,4.95776303 L4.1262973,4.95776303 Z" id="Path"></path>
                        <path d="M1.27178378,8.22619905 L1.27178378,11.9992607 L2.13124324,11.9992607 C2.47618919,11.9992607 2.784,11.7689005 2.89718919,11.4260758 C2.89783784,11.4241137 2.89851351,11.4221232 2.89921622,11.4201611 L4.02918919,8.22730806 L1.31245946,8.22730806 C1.29883784,8.22727962 1.28535135,8.22651185 1.27178378,8.22619905 Z" id="Path"></path>
                        <path d="M4.66683784,4.95776303 L4.66683784,6.3042654 C4.66683784,7.04562085 5.05375676,7.72000948 5.67697297,8.06539336 L9.01186486,9.75503318 L9.01186486,1.50699526 L5.67697297,3.19663507 C5.05378378,3.54201896 4.66683784,4.21635071 4.66683784,4.95776303 Z" id="Path"></path>
                    </g>
                </g>
            </g>
        </g>
    </g>
</svg>