<?xml version="1.0" encoding="UTF-8"?>
<svg width="25px" height="25px" viewBox="0 0 25 25" version="1.1" xmlns="http://www.w3.org/2000/svg" xmlns:xlink="http://www.w3.org/1999/xlink">
    <!-- Generator: Sketch 57.1 (83088) - https://sketch.com -->
    <title>Disasters</title>
    <desc>Created with Sketch.</desc>
    <g id="Web" stroke="none" stroke-width="1" fill="none" fill-rule="evenodd">
        <g id="Desktop-HD-Copy-3" transform="translate(-707.000000, -2690.000000)">
            <g id="Group-5" transform="translate(661.000000, 2634.000000)">
                <g id="Disasters" transform="translate(46.400000, 56.800000)">
                    <circle id="Oval" fill="#000000" cx="12" cy="12" r="12"></circle>
                    <path d="M12.9125148,7.50669814 C14.2440348,6.09229814 15.7704348,5.46086957 15.7704348,5.46086957 C15.7704348,5.46086957 7.13043478,5.46086957 7.13043478,12.2608696 C7.13043478,14.6029839 8.76915478,16.5565267 10.9483548,17.015041 C9.61683478,18.429441 8.09043478,19.0608696 8.09043478,19.0608696 C8.09043478,19.0608696 16.7304348,19.0608696 16.7304348,12.2608696 C16.7304348,9.91875528 15.0917148,7.96521242 12.9125148,7.50669814 Z M11.9304348,14.2037267 C10.8696348,14.2037267 10.0104348,13.3342981 10.0104348,12.2608696 C10.0104348,11.187441 10.8696348,10.3180124 11.9304348,10.3180124 C12.9912348,10.3180124 13.8504348,11.187441 13.8504348,12.2608696 C13.8504348,13.3342981 12.9912348,14.2037267 11.9304348,14.2037267 Z" id="Shape" fill="#FFFFFF" fill-rule="nonzero"></path>
                </g>
            </g>
        </g>
    </g>
</svg>