<?xml version="1.0" encoding="UTF-8"?>
<svg width="25px" height="25px" viewBox="0 0 25 25" version="1.1" xmlns="http://www.w3.org/2000/svg" xmlns:xlink="http://www.w3.org/1999/xlink">
    <!-- Generator: Sketch 57.1 (83088) - https://sketch.com -->
    <title>Group 9</title>
    <desc>Created with Sketch.</desc>
    <defs>
        <circle id="path-1" cx="12" cy="12" r="12"></circle>
    </defs>
    <g id="Web" stroke="none" stroke-width="1" fill="none" fill-rule="evenodd">
        <g id="Desktop-HD-Copy-3" transform="translate(-709.000000, -2934.000000)">
            <g id="Group-5" transform="translate(661.000000, 2634.000000)">
                <g id="Group-9" transform="translate(48.800000, 300.800000)">
                    <mask id="mask-2" fill="white">
                        <use xlink:href="#path-1"></use>
                    </mask>
                    <use id="Mask" fill="#000000" xlink:href="#path-1"></use>
                    <path d="M17.5636729,11.4157126 C17.9733173,6.84445619 14.8502981,4 11.6346998,4 C8.41910155,4 5.2259763,6.84445619 5.63562066,11.4157126 C5.9876168,15.3447666 6.87212617,16.6602851 8.23711882,18.0402182 C8.55809239,18.3649656 6.45173384,19.3571951 6.82009621,20.020302 C7.62350723,21.4678098 9.6245845,22.4 11.6344556,22.4 C13.4684507,22.4 15.7963641,21.4678098 16.5995308,20.020302 C16.9678932,19.3569521 14.6209266,18.3642364 14.942633,18.0402182 C16.3076256,16.6602851 17.2116768,15.3447666 17.5636729,11.4157126 Z M7.74222349,12.9373582 C6.98864398,12.8819372 5.94120509,10.9451207 6.71994464,10.1150217 C7.49868418,9.28492278 10.4206674,11.6369103 10.4206674,11.8294252 L10.4206674,11.9412394 C10.4206674,12.4947197 8.495803,12.9927791 7.74222349,12.9373582 Z M11.6346998,17.0215167 C10.8173653,17.0176044 9.54177625,16.6517775 9.54177625,15.9811353 C9.54177625,14.7997939 10.8308003,14.1904065 11.6346998,14.1777666 C12.4163706,14.1904065 13.7276234,14.7997939 13.7276234,15.9811353 C13.7276234,16.6517775 12.4163706,17.0248966 11.6346998,17.0215167 Z M12.6191165,11.9412394 L12.6191165,11.8294252 C12.6191165,11.6369103 15.5432982,9.28492278 16.3217934,10.1150217 C17.1007772,10.9451207 16.1156277,12.8819372 15.3622925,12.9373582 C14.6089573,12.9927791 12.6191165,12.4947197 12.6191165,11.9412394 Z" id="Shape" fill="#FFFFFF" fill-rule="nonzero" mask="url(#mask-2)"></path>
                </g>
            </g>
        </g>
    </g>
</svg>