<?xml version="1.0" encoding="UTF-8"?>
<svg width="25px" height="24px" viewBox="0 0 25 24" version="1.1" xmlns="http://www.w3.org/2000/svg" xmlns:xlink="http://www.w3.org/1999/xlink">
    <!-- Generator: Sketch 57.1 (83088) - https://sketch.com -->
    <title>Travel</title>
    <desc>Created with Sketch.</desc>
    <g id="Web" stroke="none" stroke-width="1" fill="none" fill-rule="evenodd">
        <g id="Desktop-HD-Copy-3" transform="translate(-707.000000, -2774.000000)">
            <g id="Group-5" transform="translate(661.000000, 2634.000000)">
                <g id="Travel" transform="translate(46.400000, 140.000000)">
                    <circle id="Oval" fill="#000000" cx="12" cy="12" r="12"></circle>
                    <path d="M20.7195181,6.78384262 C20.2946988,6.51118689 19.7706024,6.43989508 19.3048193,6.64125902 L6.04674699,12.3644328 L3.76024096,10.7818492 C3.76024096,10.7818492 3.53518072,10.6855344 3.19831325,10.8309508 C2.86144578,10.9766033 1.6626506,11.494059 1.6626506,11.494059 L5.13084337,15.1901377 C5.1313253,15.1906098 5.13204819,15.191082 5.13228916,15.1917902 L5.14481928,15.2050098 L5.14506024,15.2050098 C5.60168675,15.6901246 6.29180723,15.8768525 6.88698795,15.6200131 L11.7819277,13.5069902 L10.7421687,20.673941 C10.7421687,20.673941 11.66,20.277823 12.186506,20.0504918 C12.713494,19.8231607 12.8163855,19.4209049 12.8163855,19.4209049 L16.0180723,11.677718 L20.6672289,9.67092459 C21.4366265,9.33878033 21.7554217,8.39121311 21.3792771,7.55459672 C21.3301205,7.44553443 21.2713253,7.34379016 21.2050602,7.25007213" id="Path" fill="#FFFFFF" fill-rule="nonzero"></path>
                    <path d="M12.6643373,9.13009836 L8.04,7.30413115 C8.04,7.30413115 7.81493976,7.20805246 7.47807229,7.35346885 C7.14120482,7.49888525 5.94240964,8.01610492 5.94240964,8.01610492 L9.40650602,10.536341 L12.6643373,9.13009836 Z" id="Path" fill="#FFFFFF" fill-rule="nonzero"></path>
                </g>
            </g>
        </g>
    </g>
</svg>