<?xml version="1.0" encoding="UTF-8"?>
<svg width="25px" height="25px" viewBox="0 0 25 25" version="1.1" xmlns="http://www.w3.org/2000/svg" xmlns:xlink="http://www.w3.org/1999/xlink">
    <!-- Generator: Sketch 57.1 (83088) - https://sketch.com -->
    <title>Group 9</title>
    <desc>Created with Sketch.</desc>
    <defs>
        <circle id="path-1" cx="12" cy="12" r="12"></circle>
    </defs>
    <g id="Web" stroke="none" stroke-width="1" fill="none" fill-rule="evenodd">
        <g id="Desktop-HD-Copy-3" transform="translate(-796.000000, -2934.000000)">
            <g id="Group-5" transform="translate(661.000000, 2634.000000)">
                <g id="Group-9" transform="translate(135.200000, 300.800000)">
                    <mask id="mask-2" fill="white">
                        <use xlink:href="#path-1"></use>
                    </mask>
                    <use id="Mask" fill="#000000" xlink:href="#path-1"></use>
                    <g id="Group" mask="url(#mask-2)" fill="#FFFFFF" fill-rule="nonzero">
                        <g transform="translate(2.400000, 6.400000)" id="Path">
                            <path d="M3.44262295,2.24 C3.44262295,1.088 4.39344262,0.16 5.57377049,0.16 C6.75409836,0.16 7.70491803,1.088 7.70491803,2.24 C7.70491803,3.392 6.75409836,4.32 5.57377049,4.32 C4.39344262,4.352 3.44262295,3.424 3.44262295,2.24 Z"></path>
                            <path d="M13.4754098,7.616 L11.4754098,10.816 C11.0163934,11.52 10,11.552 9.50819672,10.944 L8.26229508,9.44 L8.26229508,13.568 L8.68852459,19.328 C8.75409836,20 8.19672131,20.576 7.47540984,20.576 C6.85245902,20.576 6.32786885,20.096 6.29508197,19.488 L5.90163934,14.112 L5.44262295,14.112 L4.03278689,19.744 C3.86885246,20.384 3.18032787,20.768 2.59016393,20.608 C1.93442623,20.448 1.54098361,19.808 1.70491803,19.2 L3.1147541,13.536 L3.1147541,8.192 L1.3442623,8.192 C0.68852459,8.192 0.131147541,7.68 0.131147541,7.008 C0.131147541,6.368 0.655737705,5.856 1.3442623,5.856 L7.93442623,5.856 C8.09836066,5.856 8.49180328,6.016 8.72131148,6.272 L10.3278689,8.192 L11.442623,6.4 C11.8032787,5.856 12.5245902,5.664 13.0819672,6.016 C13.6393443,6.336 13.8032787,7.072 13.4754098,7.616 Z"></path>
                            <path d="M19.8688525,4.96 C19.8688525,5.12 19.704918,5.28 19.5409836,5.28 L15.704918,5.28 L15.704918,6.496 C15.704918,6.656 15.5409836,6.816 15.3770492,6.816 L14.295082,6.816 C14.2295082,6.272 13.9344262,5.792 13.4098361,5.472 C12.557377,4.96 11.4098361,5.184 10.852459,6.08 L10.3934426,6.816 L9.96721311,6.816 L9.18032787,5.856 C8.85245902,5.472 8.26229508,5.216 7.90163934,5.216 L7.21311475,5.216 C7.24590164,4.896 7.54098361,4.64 7.86885246,4.64 C9.04918033,4.64 3.54098361,4.64 19.5081967,4.64 C19.704918,4.64 19.8688525,4.768 19.8688525,4.96 Z"></path>
                        </g>
                    </g>
                </g>
            </g>
        </g>
    </g>
</svg>