<?xml version="1.0" encoding="UTF-8"?>
<svg width="25px" height="25px" viewBox="0 0 25 25" version="1.1" xmlns="http://www.w3.org/2000/svg" xmlns:xlink="http://www.w3.org/1999/xlink">
    <!-- Generator: Sketch 57.1 (83088) - https://sketch.com -->
    <title>Group 9</title>
    <desc>Created with Sketch.</desc>
    <defs>
        <circle id="path-1" cx="12" cy="12" r="12"></circle>
    </defs>
    <g id="Web" stroke="none" stroke-width="1" fill="none" fill-rule="evenodd">
        <g id="Desktop-HD-Copy-3" transform="translate(-795.000000, -2854.000000)">
            <g id="Group-5" transform="translate(661.000000, 2634.000000)">
                <g id="Group-9" transform="translate(134.400000, 220.800000)">
                    <mask id="mask-2" fill="white">
                        <use xlink:href="#path-1"></use>
                    </mask>
                    <use id="Mask" fill="#000000" xlink:href="#path-1"></use>
                    <path d="M8.5037037,16.4307692 C6.95161481,16.4307692 5.68888889,15.1884923 5.68888889,13.6615385 C5.68888889,12.1761231 6.88687407,10.9692923 8.38097778,10.9044923 L8.39111111,10.8923077 L10.5185481,10.8923077 L10.5230519,10.8873231 C10.9661037,10.8618462 11.3185185,10.5040615 11.3185185,10.0615385 L11.3185185,8.67692308 C11.3185185,8.06492308 10.8146667,7.56923077 10.1925926,7.56923077 L6.81481481,7.56923077 C6.19274074,7.56923077 5.68888889,8.06492308 5.68888889,8.67692308 L5.68888889,10.2055385 C4.66035556,11.0180308 4,12.2630769 4,13.6615385 C4,16.1084308 6.01653333,18.0923077 8.5037037,18.0923077 C9.24343704,18.0923077 9.93982222,17.9134154 10.5562667,17.6021538 C10.2336889,17.1463385 9.98936296,16.6351385 9.83567407,16.0857231 C9.4370963,16.2989538 8.98785185,16.4307692 8.5037037,16.4307692 Z M8.5037037,8.67692308 C8.81445926,8.67692308 9.06666667,8.92504615 9.06666667,9.23076923 C9.06666667,9.53649231 8.81445926,9.78461538 8.5037037,9.78461538 C8.19294815,9.78461538 7.94074074,9.53649231 7.94074074,9.23076923 C7.94074074,8.92504615 8.19294815,8.67692308 8.5037037,8.67692308 Z" id="Shape" fill="#FFFFFF" fill-rule="nonzero" mask="url(#mask-2)"></path>
                    <path d="M8.50145185,7.01538462 L9.62737778,7.01538462 C9.96515556,7.01538462 10.2663407,6.86363077 10.4729481,6.62990769 C10.6795556,6.86363077 10.9807407,7.01538462 11.3185185,7.01538462 L12.4444444,7.01538462 C12.4489481,7.01538462 12.4534519,7.01427692 12.4579556,7.01427692 C12.4523259,7.05692308 12.4444444,7.09846154 12.4444444,7.14221538 C12.4444444,7.75144615 12.9511111,8.24990769 13.5703704,8.24990769 L14.6962963,8.24990769 C15.3155556,8.24990769 15.8222222,7.75144615 15.8222222,7.14221538 C15.8222222,6.53298462 15.3155556,6.03452308 14.6962963,6.03452308 L13.5703704,6.03452308 C13.5658667,6.03452308 13.561363,6.03563077 13.5568593,6.03563077 C13.5624889,5.99353846 13.5703704,5.95144615 13.5703704,5.90769231 C13.5703704,5.29846154 13.0637037,4.8 12.4444444,4.8 L11.3185185,4.8 C10.9807407,4.8 10.6795556,4.95175385 10.4729481,5.18547692 C10.2657778,4.95175385 9.96515556,4.8 9.62737778,4.8 L8.50145185,4.8 C7.88219259,4.8 7.37552593,5.29846154 7.37552593,5.90769231 C7.37552593,6.51692308 7.88219259,7.01538462 8.50145185,7.01538462 Z M14.6962963,6.58836923 C15.0064889,6.58836923 15.2592593,6.83704615 15.2592593,7.14221538 C15.2592593,7.44738462 15.0064889,7.69606154 14.6962963,7.69606154 L13.5703704,7.69606154 C13.2601778,7.69606154 13.0074074,7.44738462 13.0074074,7.14221538 C13.0074074,6.83704615 13.2601778,6.58836923 13.5703704,6.58836923 L14.6962963,6.58836923 L14.6962963,6.58836923 Z M11.3185185,5.35384615 L12.4444444,5.35384615 C12.754637,5.35384615 13.0074074,5.60252308 13.0074074,5.90769231 C13.0074074,6.21286154 12.754637,6.46153846 12.4444444,6.46153846 L11.3185185,6.46153846 C11.0083259,6.46153846 10.7555556,6.21286154 10.7555556,5.90769231 C10.7555556,5.60252308 11.0083259,5.35384615 11.3185185,5.35384615 Z M8.50145185,5.35384615 L9.62737778,5.35384615 C9.93757037,5.35384615 10.1903407,5.60252308 10.1903407,5.90769231 C10.1903407,6.21286154 9.93757037,6.46153846 9.62737778,6.46153846 L8.50145185,6.46153846 C8.19125926,6.46153846 7.93848889,6.21286154 7.93848889,5.90769231 C7.93848889,5.60252308 8.1906963,5.35384615 8.50145185,5.35384615 Z" id="Shape" fill="#FFFFFF" fill-rule="nonzero" mask="url(#mask-2)"></path>
                    <path d="M17.9569778,11.7186462 C17.740237,12.2093538 17.2442667,12.5538462 16.6666667,12.5538462 L16.3677333,12.5538462 C17.057363,13.0589538 17.5111111,13.8603692 17.5111111,14.7692308 C17.5111111,16.2961846 16.2483852,17.5384615 14.6962963,17.5384615 C13.1442074,17.5384615 11.8814815,16.2961846 11.8814815,14.7692308 C11.8814815,13.2838154 13.0794667,12.0769846 14.5735704,12.0121846 L14.5837037,12 L16.7111407,12 L16.7156444,11.9950154 C17.1586963,11.9695385 17.5111111,11.6117538 17.5111111,11.1692308 L17.5111111,9.78461538 C17.5111111,9.17261538 17.0072593,8.67692308 16.3851852,8.67692308 L13.0074074,8.67692308 C12.3853333,8.67692308 11.8814815,9.17261538 11.8814815,9.78461538 L11.8814815,11.3132308 C10.8529481,12.1251692 10.1925926,13.3702154 10.1925926,14.7692308 C10.1925926,17.2161231 12.2091259,19.2 14.6962963,19.2 C17.1834667,19.2 19.2,17.2161231 19.2,14.7692308 C19.2,13.5856615 18.7254222,12.5134154 17.9569778,11.7186462 Z M14.6962963,9.78461538 C15.0070519,9.78461538 15.2592593,10.0327385 15.2592593,10.3384615 C15.2592593,10.6441846 15.0070519,10.8923077 14.6962963,10.8923077 C14.3855407,10.8923077 14.1333333,10.6441846 14.1333333,10.3384615 C14.1333333,10.0327385 14.3855407,9.78461538 14.6962963,9.78461538 Z" id="Shape" fill="#FFFFFF" fill-rule="nonzero" mask="url(#mask-2)"></path>
                </g>
            </g>
        </g>
    </g>
</svg>