<?xml version="1.0" encoding="UTF-8"?>
<svg width="25px" height="24px" viewBox="0 0 25 24" version="1.1" xmlns="http://www.w3.org/2000/svg" xmlns:xlink="http://www.w3.org/1999/xlink">
    <!-- Generator: Sketch 57.1 (83088) - https://sketch.com -->
    <title>Group 9</title>
    <desc>Created with Sketch.</desc>
    <defs>
        <circle id="path-1" cx="12" cy="12" r="12"></circle>
    </defs>
    <g id="Web" stroke="none" stroke-width="1" fill="none" fill-rule="evenodd">
        <g id="Desktop-HD-Copy-3" transform="translate(-794.000000, -2774.000000)">
            <g id="Group-5" transform="translate(661.000000, 2634.000000)">
                <g id="Group-9" transform="translate(133.600000, 140.000000)">
                    <g id="Group">
                        <mask id="mask-2" fill="white">
                            <use xlink:href="#path-1"></use>
                        </mask>
                        <use id="Mask" fill="#000000" xlink:href="#path-1"></use>
                        <path d="M20.065,14.6072727 L20.065,14.3527273 C20.065,14.3272727 20.065,14.2763636 20.065,14.2509091 C19.645,14.2254545 19.30375,13.8945455 19.30375,13.4872727 C19.30375,13.08 19.645,12.7236364 20.065,12.7236364 C20.065,12.6218182 20.065,12.4945455 20.065,12.3927273 C20.065,12.1890909 19.98625,11.9345455 19.88125,11.7563636 C19.33,10.7636364 18.72625,9.79636364 18.14875,8.80363636 C18.0175,8.54909091 17.8075,8.44727273 17.51875,8.44727273 C16.88875,8.44727273 16.25875,8.44727273 15.62875,8.44727273 C15.05125,8.44727273 14.7625,8.70181818 14.7625,9.28727273 C14.7625,10.9927273 14.7625,12.6981818 14.7625,14.3781818 L14.7625,14.6327273 L9.85375,14.6327273 C10.06375,14.8872727 10.195,15.0654545 10.3,15.2181818 L15.025,15.2181818 C15.47125,14.4545455 16.31125,14.0218182 17.0725,13.9963636 C17.67625,13.9963636 18.2275,14.1236364 18.67375,14.48 C19.3825,15.0145455 19.6975,15.7527273 19.645,16.6181818 C20.19625,16.6690909 20.4325,16.6436364 20.61625,16.2109091 L20.61625,14.9890909 C20.51125,14.7854545 20.35375,14.6072727 20.065,14.6072727 Z M18.35875,11.5272727 C17.965,11.5272727 17.57125,11.5272727 17.1775,11.5272727 C17.1775,11.5272727 17.1775,11.5272727 17.1775,11.5272727 C16.81,11.5272727 16.4425,11.5272727 16.04875,11.5272727 C15.89125,11.5272727 15.8125,11.4763636 15.8125,11.3236364 C15.8125,10.7890909 15.8125,10.2290909 15.8125,9.69454545 C15.8125,9.51636364 15.865,9.44 16.04875,9.44 C16.4425,9.44 16.81,9.44 17.20375,9.44 C17.2825,9.44 17.41375,9.51636364 17.46625,9.59272727 C17.8075,10.1527273 18.14875,10.7381818 18.46375,11.2981818 C18.595,11.4509091 18.5425,11.5272727 18.35875,11.5272727 Z M14.71,16.0327273 L10.58875,16.0327273 C10.615,16.1854545 10.615,16.3890909 10.615,16.6181818 L14.68375,16.6181818 C14.68375,16.44 14.68375,16.2363636 14.71,16.0327273 Z M20.065,13.08 C19.855,13.1054545 19.6975,13.2581818 19.6975,13.4872727 C19.6975,13.6909091 19.855,13.8690909 20.065,13.8945455 C20.065,13.6145455 20.065,13.36 20.065,13.08 Z" id="Shape" fill="#FFFFFF" fill-rule="nonzero" mask="url(#mask-2)"></path>
                        <path d="M17.44,14.76 C16.52125,14.6072727 15.6025,15.1927273 15.3925,16.0581818 C15.15625,17.0254545 15.8125,18.1454545 16.8625,18.2981818 C17.965,18.4763636 19.04125,17.56 19.015,16.4909091 C18.98875,15.6254545 18.3325,14.8872727 17.44,14.76 Z M17.1775,17.3054545 C16.73125,17.3054545 16.36375,16.9745455 16.36375,16.5163636 C16.36375,16.0836364 16.705,15.7527273 17.15125,15.7527273 C17.62375,15.7527273 17.965,16.0836364 17.965,16.5163636 C17.965,16.9490909 17.62375,17.3054545 17.1775,17.3054545 Z" id="Shape" fill="#FFFFFF" fill-rule="nonzero" mask="url(#mask-2)"></path>
                        <path d="M8.80375,14.8363636 C7.9375,14.5054545 6.91375,14.8872727 6.49375,15.7272727 C6.07375,16.5672727 6.3625,17.5854545 7.2025,18.0436364 C8.22625,18.6036364 9.5125,18.1709091 9.90625,17.0763636 C10.22125,16.16 9.74875,15.2181818 8.80375,14.8363636 Z M8.1475,17.3054545 C7.70125,17.3054545 7.33375,16.9490909 7.33375,16.5163636 C7.33375,16.0836364 7.675,15.7272727 8.1475,15.7272727 C8.59375,15.7272727 8.935,16.0581818 8.935,16.4909091 C8.96125,16.9490909 8.59375,17.3054545 8.1475,17.3054545 Z" id="Shape" fill="#FFFFFF" fill-rule="nonzero" mask="url(#mask-2)"></path>
                        <path d="M5.70625,16.0327273 C5.68,16.2109091 5.68,16.4145455 5.68,16.6181818 C5.3125,16.6181818 4.97125,16.6436364 4.63,16.6181818 C4.3675,16.5927273 4.21,16.3890909 4.18375,16.1345455 C4.18375,16.1090909 4.18375,16.0836364 4.18375,16.0327273 L5.70625,16.0327273 Z" id="Path" fill="#FFFFFF" fill-rule="nonzero" mask="url(#mask-2)"></path>
                        <path d="M6.49375,14.6327273 C6.31,14.8109091 6.12625,15.0145455 6.02125,15.2181818 L4.18375,15.2181818 C4.18375,15.1927273 4.18375,15.1418182 4.18375,15.1163636 C4.18375,14.8618182 4.3675,14.6327273 4.63,14.6327273 C5.23375,14.6072727 5.8375,14.6327273 6.49375,14.6327273 Z" id="Path" fill="#FFFFFF" fill-rule="nonzero" mask="url(#mask-2)"></path>
                        <path d="M14.26375,7.78545455 L14.26375,14.1745455 L4.55125,14.1745455 L4.55125,7.78545455 C4.55125,7.50545455 4.7875,7.27636364 5.07625,7.27636364 L13.765,7.27636364 C14.0275,7.27636364 14.26375,7.50545455 14.26375,7.78545455 Z" id="Path" fill="#FFFFFF" fill-rule="nonzero" mask="url(#mask-2)"></path>
                    </g>
                </g>
            </g>
        </g>
    </g>
</svg>