<?xml version="1.0" encoding="UTF-8"?>
<svg width="30px" height="30px" viewBox="0 0 30 30" version="1.1" xmlns="http://www.w3.org/2000/svg" xmlns:xlink="http://www.w3.org/1999/xlink">
    <!-- Generator: Sketch 57.1 (83088) - https://sketch.com -->
    <title>Group 8</title>
    <desc>Created with Sketch.</desc>
    <g id="Web" stroke="none" stroke-width="1" fill="none" fill-rule="evenodd">
        <g id="Desktop-HD-Copy" transform="translate(-1081.000000, -130.000000)">
            <g id="Group-8" transform="translate(1081.000000, 130.000000)">
                <circle id="Oval" fill="#FF496F" cx="15" cy="15" r="15"></circle>
                <g id="noun_broadcast_405149" transform="translate(5.000000, 8.000000)" fill="#FFFFFF" fill-rule="nonzero">
                    <path d="M13.046,10.8 C12.6042,10.8 12.246,10.4418 12.246,10 C12.246,8.7618 11.2384,7.7542 10,7.7542 C8.7618,7.7542 7.7542,8.7616 7.7542,10 C7.7542,10.4418 7.396,10.8 6.9542,10.8 C6.5124,10.8 6.1542,10.4418 6.1542,10 C6.1542,7.8794 7.8794,6.1542 10,6.1542 C12.1208,6.1542 13.846,7.8794 13.846,10 C13.846,10.4418 13.4878,10.8 13.046,10.8 Z" id="Path"></path>
                    <path d="M16.0914,10.8 C15.6496,10.8 15.2914,10.4418 15.2914,10 C15.2914,7.0822 12.9178,4.7084 10,4.7084 C7.0822,4.7084 4.7084,7.0822 4.7084,10 C4.7084,10.4418 4.3502,10.8 3.9084,10.8 C3.4666,10.8 3.1084,10.4418 3.1084,10 C3.1084,6.2 6.2,3.1084 10,3.1084 C13.8,3.1084 16.8914,6.2 16.8914,10 C16.8914,10.4418 16.5332,10.8 16.0914,10.8 Z" id="Path"></path>
                    <path d="M19.1376,10.8 C18.6958,10.8 18.3376,10.4418 18.3376,10 C18.3376,5.4028 14.5972,1.6626 10,1.6626 C5.4028,1.6626 1.6626,5.4028 1.6626,10 C1.6626,10.4418 1.3044,10.8 0.8626,10.8 C0.4208,10.8 0.0626,10.4418 0.0626,10 C0.0626,4.5206 4.5206,0.0626 10,0.0626 C15.4794,0.0626 19.9376,4.5206 19.9376,10 C19.9376,10.4418 19.5792,10.8 19.1376,10.8 Z" id="Path"></path>
                </g>
            </g>
        </g>
    </g>
</svg>