<?xml version="1.0" encoding="UTF-8"?>
<svg width="39px" height="39px" viewBox="0 0 39 39" version="1.1" xmlns="http://www.w3.org/2000/svg" xmlns:xlink="http://www.w3.org/1999/xlink">
    <!-- Generator: Sketch 57.1 (83088) - https://sketch.com -->
    <title>facebook-app-logo</title>
    <desc>Created with Sketch.</desc>
    <g id="Web" stroke="none" stroke-width="1" fill="none" fill-rule="evenodd">
        <g id="Desktop-HD-Copy-2" transform="translate(-429.000000, -678.000000)" fill="#FFFFFF" fill-rule="nonzero">
            <g id="facebook-app-logo" transform="translate(429.000000, 678.000000)">
                <path d="M36.2793124,0 L2.11942304,0 C0.949693736,0 0,0.947796878 0,2.11942304 L0,36.2793124 C0,37.4509385 0.949693736,38.4 2.11942304,38.4 L20.5100968,38.4 L20.5100968,23.529263 L15.5061845,23.529263 L15.5061845,17.7330962 L20.5100968,17.7330962 L20.5100968,13.4588421 C20.5100968,8.49982217 23.538115,5.79806362 27.9628532,5.79806362 C30.0841731,5.79806362 31.9032602,5.95676744 32.4337483,6.02568662 L32.4337483,11.2091681 L29.3646315,11.2104327 C26.9587828,11.2104327 26.4946848,12.3542383 26.4946848,14.0316933 L26.4946848,17.7311994 L32.2345781,17.7311994 L31.4840545,23.5267338 L26.4940526,23.5267338 L26.4940526,38.3981031 L36.2786801,38.3981031 C37.449674,38.3981031 38.4,37.4477771 38.4,36.2793124 L38.4,2.11815847 C38.3993677,0.947796878 37.4503063,0 36.2793124,0 Z" id="Path"></path>
            </g>
        </g>
    </g>
</svg>