<?xml version="1.0" encoding="UTF-8"?>
<svg width="38px" height="31px" viewBox="0 0 38 31" version="1.1" xmlns="http://www.w3.org/2000/svg" xmlns:xlink="http://www.w3.org/1999/xlink">
    <!-- Generator: Sketch 54.1 (76490) - https://sketchapp.com -->
    <title>Group</title>
    <desc>Created with Sketch.</desc>
    <g id="Web" stroke="none" stroke-width="1" fill="none" fill-rule="evenodd">
        <g id="Desktop-HD-Copy-2" transform="translate(-1076.000000, -3413.000000)" fill="#000000" fill-rule="nonzero">
            <g id="Group-10" transform="translate(1097.349865, 3463.426645) rotate(-3.000000) translate(-1097.349865, -3463.426645) translate(980.349865, 3319.926645)">
                <g id="Gun" transform="translate(83.200000, 75.200000)">
                    <g id="Group" transform="translate(14.400000, 19.200000)">
                        <path d="M26.5392,14.5472 L15.56,14.5472 C15.2016,14.5472 14.888,14.3104 14.7904,13.9664 C14.088,11.488 12.4816,9.7408 10.0144,8.7728 C9.7008,8.7008 9.4528,8.4416 9.4048,8.112 C9.352,7.7568 9.5488,7.4128 9.8672,7.2656 C9.8784,7.2512 10.5088,6.7984 12.2064,4.3648 C13.5888,2.3552 15.3648,2.2544 15.7056,2.2544 L37.296,2.192 C37.7376,2.192 38.096,2.5504 38.096,2.992 L38.096,6.1712 C38.096,6.6128 37.7376,6.9712 37.296,6.9712 L27.3968,6.9712 L27.3392,13.7536 C27.336,14.1936 26.9776,14.5472 26.5392,14.5472 Z M16.1456,12.9472 L25.7456,12.9472 L25.8032,6.1648 C25.8064,5.7264 26.1648,5.3712 26.6032,5.3712 L36.496,5.3712 L36.496,3.792 L15.7616,3.856 C15.576,3.8448 14.4752,3.8912 13.5216,5.2752 C12.784,6.3328 12.1472,7.1648 11.6288,7.7504 C13.8032,8.8752 15.3456,10.6496 16.1456,12.9472 Z" id="Shape"></path>
                        <path d="M8.0608,28.6656 C8.0608,28.6656 8.0608,28.6656 8.0608,28.6656 C7.5088,28.6656 6.9088,28.6576 6.1872,28.648 C5.104,28.6336 3.744,28.6144 1.8544,28.6144 C1.5056,28.6144 1.1984,28.3888 1.0912,28.0576 C-1.288,20.608 1.7808,13.12 9.5104,7.5088 L9.7056,7.3648 C9.9184,7.1968 10.2016,7.144 10.464,7.232 C15.2176,8.8528 16.2944,13.448 16.3376,13.6416 C16.384,13.856 16.3424,14.08 16.2208,14.2624 C16.0992,14.4448 15.9088,14.568 15.6928,14.6064 C12.032,15.2384 11.9744,16.8208 11.9264,18.0928 C11.8672,19.6496 11.9248,23.048 11.96,25.0784 C11.9744,25.8592 11.984,26.4608 11.984,26.7232 C11.984,27.1424 11.8464,28.5168 10.0864,28.6144 C9.3904,28.6528 8.7664,28.6656 8.0608,28.6656 Z M2.4496,27.0144 C4.0432,27.0192 5.2368,27.0352 6.208,27.048 C6.9216,27.0576 7.5152,27.0656 8.0592,27.0656 C8.0608,27.0656 8.0608,27.0656 8.0608,27.0656 C8.7344,27.0656 9.3312,27.0544 9.9968,27.0176 C10.3824,26.9952 10.3824,26.944 10.3824,26.7232 C10.3824,26.464 10.3728,25.8736 10.3584,25.104 C10.3248,23.0576 10.2656,19.6304 10.3248,18.032 C10.3712,16.7712 10.4656,14.2352 14.5216,13.216 C14.0688,12.0608 12.9136,9.928 10.3312,8.8896 C6.2224,11.9056 -0.0448,18.1568 2.4496,27.0144 Z" id="Shape"></path>
                        <path d="M21.048,20.712 C19.152,20.712 17.6352,20.1232 16.5392,18.9632 C14.5984,16.912 14.7472,13.8336 14.7552,13.7024 C14.7792,13.2784 15.128,12.9472 15.5536,12.9472 L18.056,12.9472 C18.4448,12.9472 18.776,13.2272 18.8432,13.608 C18.9376,14.1392 19.2704,14.776 19.6432,15.3328 C19.7888,14.2672 20.1488,13.4672 20.1744,13.4144 C20.304,13.1296 20.5888,12.9472 20.9008,12.9472 L26.5424,12.9472 C26.968,12.9472 27.3168,13.2784 27.3408,13.7024 C27.3488,13.8336 27.4976,16.912 25.5568,18.9632 C24.4608,20.1232 22.944,20.712 21.048,20.712 Z M16.3792,14.5472 C16.4592,15.4176 16.7424,16.8528 17.7072,17.8704 C18.4896,18.6944 19.6128,19.1104 21.048,19.1104 C22.4832,19.1104 23.6064,18.6928 24.3888,17.8704 C25.3552,16.8528 25.6368,15.4176 25.7168,14.5472 L21.4576,14.5472 C21.2672,15.1456 21.024,16.216 21.3216,17.1712 C21.4112,17.4608 21.3312,17.7744 21.112,17.9856 C20.8928,18.1952 20.5744,18.2656 20.2928,18.1632 C19.352,17.8336 17.9776,16.0256 17.4496,14.5472 L16.3792,14.5472 L16.3792,14.5472 Z" id="Shape"></path>
                        <path d="M10.1328,8.7904 C10.04,8.7904 9.9504,8.7744 9.8608,8.744 C9.6096,8.6512 9.4192,8.44 9.3568,8.1808 C9.3216,8.0512 8.9904,7.0192 7.3728,6.9504 C6.9504,6.9312 6.6144,6.5872 6.6064,6.1664 C6.5984,5.7424 6.92,5.3888 7.3408,5.3536 C7.5936,5.3328 7.824,5.3088 8.0368,5.2848 C9.664,5.1136 10.5856,5.2768 11.7808,6.3968 C12.0832,6.68 12.1216,7.1456 11.8672,7.472 C11.4944,7.952 10.7072,8.5584 10.6176,8.6256 C10.4768,8.7328 10.3072,8.7904 10.1328,8.7904 Z" id="Path"></path>
                        <path d="M24.2048,6.8752 L17.304,6.8752 C16.8624,6.8752 16.504,6.5168 16.504,6.0752 C16.504,5.6336 16.8624,5.2752 17.304,5.2752 L24.2048,5.2752 C24.6464,5.2752 25.0048,5.6336 25.0048,6.0752 C25.0048,6.5168 24.6464,6.8752 24.2048,6.8752 Z" id="Path"></path>
                        <path d="M24.2048,9.0896 L17.304,9.0896 C16.8624,9.0896 16.504,8.7312 16.504,8.2896 C16.504,7.848 16.8624,7.4896 17.304,7.4896 L24.2048,7.4896 C24.6464,7.4896 25.0048,7.848 25.0048,8.2896 C25.0048,8.7312 24.6464,9.0896 24.2048,9.0896 Z" id="Path"></path>
                        <path d="M24.2048,11.3024 L17.304,11.3024 C16.8624,11.3024 16.504,10.944 16.504,10.5024 C16.504,10.0608 16.8624,9.7024 17.304,9.7024 L24.2048,9.7024 C24.6464,9.7024 25.0048,10.0608 25.0048,10.5024 C25.0048,10.944 24.6464,11.3024 24.2048,11.3024 Z" id="Path"></path>
                        <path d="M6.288,25.712 C4.4672,25.712 2.9872,24.232 2.9872,22.4112 C2.9872,20.5904 4.4672,19.1104 6.288,19.1104 C8.1088,19.1104 9.5888,20.5904 9.5888,22.4112 C9.5888,24.232 8.1088,25.712 6.288,25.712 Z M6.288,20.712 C5.3504,20.712 4.5872,21.4752 4.5872,22.4128 C4.5872,23.3504 5.3504,24.112 6.288,24.112 C7.2256,24.112 7.9888,23.3488 7.9888,22.4112 C7.9888,21.4736 7.2256,20.712 6.288,20.712 Z" id="Shape"></path>
                        <path d="M35.1712,3.792 C34.7296,3.792 34.3712,3.4336 34.3712,2.992 L34.3712,0.9344 C34.3712,0.4928 34.7296,0.1344 35.1712,0.1344 C35.6128,0.1344 35.9712,0.4928 35.9712,0.9344 L35.9712,2.992 C35.9712,3.4336 35.6128,3.792 35.1712,3.792 Z" id="Path"></path>
                    </g>
                </g>
            </g>
        </g>
    </g>
</svg>