<?xml version="1.0" encoding="UTF-8"?>
<svg width="39px" height="39px" viewBox="0 0 39 39" version="1.1" xmlns="http://www.w3.org/2000/svg" xmlns:xlink="http://www.w3.org/1999/xlink">
    <!-- Generator: Sketch 57.1 (83088) - https://sketch.com -->
    <title>linkedin-logo</title>
    <desc>Created with Sketch.</desc>
    <g id="Web" stroke="none" stroke-width="1" fill="none" fill-rule="evenodd">
        <g id="Desktop-HD-Copy-2" transform="translate(-492.000000, -678.000000)" fill="#FFFFFF" fill-rule="nonzero">
            <g id="linkedin-logo" transform="translate(492.000000, 678.000000)">
                <path d="M35.5645033,0 L2.8372823,0 C1.2701704,0 0,1.23140906 0,2.75127477 L0,35.6475646 C0,37.1675196 1.27061679,38.4 2.8372823,38.4 L35.5645033,38.4 C37.1312581,38.4 38.4,37.1667161 38.4,35.6475646 L38.4,2.75127477 C38.4,1.23185544 37.1312581,0 35.5645033,0 Z M11.6417853,32.1434099 L5.83981977,32.1434099 L5.83981977,14.8062811 L11.6417853,14.8062811 L11.6417853,32.1434099 Z M8.74138285,12.4377403 L8.70236798,12.4377403 C6.7567137,12.4377403 5.49547119,11.1071436 5.49547119,9.44130866 C5.49547119,7.74190524 6.79376443,6.44737677 8.77798718,6.44737677 C10.7623885,6.44737677 11.9830091,7.74154813 12.0215776,9.44130866 C12.0215776,11.1075007 10.7628349,12.4377403 8.74138285,12.4377403 Z M32.5561627,32.1434099 L26.756072,32.1434099 L26.756072,22.8674438 C26.756072,20.5366676 25.9156901,18.9462724 23.8181724,18.9462724 C22.2135634,18.9462724 21.2610472,20.0192133 20.8427757,21.0551039 C20.6877876,21.4250713 20.6493977,21.9425255 20.6493977,22.4592656 L20.6493977,32.1430528 L14.8503784,32.1430528 C14.8503784,32.1430528 14.9262654,16.4320303 14.8503784,14.8060132 L20.6502905,14.8060132 L20.6502905,17.2639211 C21.4202314,16.0828647 22.796108,14.3981028 25.8761395,14.3981028 C29.6937037,14.3981028 32.5561627,16.8745805 32.5561627,22.2022347 L32.5561627,32.1434099 Z M20.6217025,17.3437983 C20.6350225,17.3219583 20.6536225,17.2956783 20.6721025,17.2701183 L20.6721025,17.3437983 L20.6217025,17.3437983 Z" id="LinkedIn__x28_alt_x29_"></path>
            </g>
        </g>
    </g>
</svg>