<?xml version="1.0" encoding="UTF-8"?>
<svg width="38px" height="35px" viewBox="0 0 38 35" version="1.1" xmlns="http://www.w3.org/2000/svg" xmlns:xlink="http://www.w3.org/1999/xlink">
    <!-- Generator: Sketch 54.1 (76490) - https://sketchapp.com -->
    <title>noun_demonstration_854379</title>
    <desc>Created with Sketch.</desc>
    <g id="Web" stroke="none" stroke-width="1" fill="none" fill-rule="evenodd">
        <g id="Desktop-HD-Copy-2" transform="translate(-914.000000, -3264.000000)" fill="#000000">
            <g id="Group-8" transform="translate(945.121812, 3310.891172) rotate(-16.000000) translate(-945.121812, -3310.891172) translate(842.621812, 3185.391172)">
                <g id="Group-2" transform="translate(72.800000, 65.800000)">
                    <g id="noun_demonstration_854379" transform="translate(9.800000, 11.760000)">
                        <path d="M13.9950189,14.8403463 C14.6189179,14.6927274 15.0051411,14.0674358 14.8570579,13.4440011 L13.7137074,8.60878421 C13.5665526,7.98488526 12.9412611,7.59912632 12.3173621,7.74628105 C11.6934632,7.8939 11.30724,8.51919158 11.4553232,9.14262632 L12.5986737,13.9778432 C12.7244747,14.5116853 13.2012189,14.8714484 13.7271695,14.8714484 C13.8158337,14.8714484 13.9054263,14.8612358 13.9950189,14.8403463 Z" id="Path"></path>
                        <path d="M15.6615347,16.8443432 C15.51438,16.2204442 14.8863032,15.8351495 14.2656537,15.98184 C13.6417547,16.1289947 13.2555316,16.7542863 13.4031505,17.3781853 L13.5828,18.1385621 C13.7086011,18.6724042 14.1853453,19.0326316 14.7112958,19.0326316 C14.7994958,19.0326316 14.8895526,19.0224189 14.9786811,19.0015295 C15.60258,18.8543747 15.9888032,18.2290832 15.8411842,17.6051842 L15.6615347,16.8443432 Z" id="Path"></path>
                        <path d="M33.9867095,11.3309147 L24.1538021,9.96010105 L22.1098832,1.31603684 C22.0393232,1.01615684 21.8522463,0.757127368 21.5904316,0.595582105 C21.3286168,0.433572632 21.0120253,0.382509474 20.7135379,0.453533684 L1.32996316,5.03761263 C0.706064211,5.18523158 0.319841053,5.81052316 0.467924211,6.43395789 L5.11095789,26.0677421 C5.18151789,26.3676221 5.36859474,26.6266516 5.63040947,26.7881968 C5.81516526,26.9023926 6.02684526,26.9613474 6.23991789,26.9613474 C6.32904632,26.9613474 6.41910316,26.9511347 6.50683895,26.9302453 L15.28506,24.8542958 L17.4454958,33.9904232 C17.5712968,34.5242653 18.0480411,34.8840284 18.5739916,34.8840284 C18.6621916,34.8840284 18.7522484,34.8738158 18.8418411,34.8529263 C19.46574,34.7053074 19.8519632,34.0800158 19.70388,33.4565811 L17.6799221,24.8979316 L23.4291695,25.8829863 L22.5559895,32.1465789 C22.4673253,32.7816189 22.9101821,33.3679168 23.5452221,33.4561168 C23.5995347,33.4635442 23.6529189,33.4672579 23.7067674,33.4672579 C24.2768179,33.4672579 24.7739874,33.0471474 24.85476,32.4668842 L25.7177274,26.27478 L31.7232189,27.3039347 C31.7882084,27.3150758 31.8536621,27.3206463 31.9191158,27.3206463 C32.1632905,27.3206463 32.4037516,27.2431232 32.6042905,27.0968968 C32.8577495,26.9116768 33.0253295,26.6312937 33.0685011,26.3202726 L34.9754779,12.6399884 C35.0641421,12.0058768 34.6212853,11.4195789 33.9867095,11.3309147 Z M2.99276526,7.02907579 L20.1179558,2.97930316 L24.2271474,20.3547032 L7.10195684,24.4044758 L2.99276526,7.02907579 Z M30.9349895,24.8148379 L21.9585505,23.2764442 L25.8904137,22.3466305 C26.5143126,22.1990116 26.9005358,21.57372 26.7524526,20.9502853 L24.7271021,12.3837442 L32.5165547,13.4699968 L30.9349895,24.8148379 Z" id="Shape" fill-rule="nonzero"></path>
                    </g>
                </g>
            </g>
        </g>
    </g>
</svg>