<?xml version="1.0" encoding="UTF-8"?>
<svg width="34px" height="32px" viewBox="0 0 34 32" version="1.1" xmlns="http://www.w3.org/2000/svg" xmlns:xlink="http://www.w3.org/1999/xlink">
    <!-- Generator: Sketch 54.1 (76490) - https://sketchapp.com -->
    <title>noun_Plane_609018</title>
    <desc>Created with Sketch.</desc>
    <g id="Web" stroke="none" stroke-width="1" fill="none" fill-rule="evenodd">
        <g id="Desktop-HD-Copy-2" transform="translate(-1155.000000, -3198.000000)" fill="#000000">
            <g id="Group-6" transform="translate(1163.212842, 3236.717091) rotate(21.000000) translate(-1163.212842, -3236.717091) translate(1075.712842, 3129.217091)">
                <g id="Group-9" transform="translate(62.328767, 57.653631)">
                    <g id="noun_Plane_609018" transform="translate(8.390411, 8.407821)">
                        <g id="Group">
                            <path d="M19.4379618,4.74167136 C19.4061783,4.65846896 19.2770111,4.36939055 18.9434536,4.09382421 C18.6554366,3.85566567 18.1392424,3.57277751 17.3159204,3.57277751 C15.9960571,3.57277751 15.3612677,4.30702203 15.1939467,4.74173792 C15.0525812,5.10782847 15.241046,5.51758364 15.614316,5.65696429 C15.9774885,5.79115312 16.3819999,5.62055492 16.5339373,5.27316827 C16.5593506,5.22950365 16.725045,4.99234354 17.3159204,4.99234354 C17.9062536,4.99234354 18.071948,5.22943709 18.0979035,5.27316827 C18.2143979,5.53941595 18.4796446,5.70269233 18.7612913,5.70269233 C18.8460022,5.70269233 18.9328139,5.68811527 19.0175248,5.65689773 C19.3903204,5.51758364 19.5787174,5.10776191 19.4379618,4.74167136 Z" id="Path"></path>
                            <path d="M34.3011972,17.1386289 L31.0822516,15.5348861 L31.0822516,15.1313877 C31.0822516,14.7392715 30.7592659,14.4221039 30.3601083,14.4221039 C30.0647045,14.4221039 29.8105719,14.595764 29.6993634,14.8453711 L26.7451223,13.3748187 L26.7451223,13.0087281 C26.7451223,12.6166119 26.4221367,12.2994443 26.0230468,12.2994443 C25.7392314,12.2994443 25.4957385,12.4595923 25.3771432,12.692559 L20.7911673,10.4076881 C20.872693,7.53833691 20.9298898,5.39790531 20.9298898,4.99234354 C20.9298898,4.10420787 20.5868446,2.92379881 20.0573678,1.98567514 C19.3415947,0.720000268 18.3679617,0.0221651187 17.3159881,0.0221651187 C16.2640146,0.0221651187 15.2909237,0.720000268 14.5750829,1.98567514 C14.0445895,2.92379881 13.7015443,4.10420787 13.7015443,4.99234354 C13.7015443,5.40003529 13.7592833,7.55497739 13.8418255,10.4399706 L9.3209753,12.6926256 C9.20238007,12.4596589 8.95780282,12.2995109 8.67452964,12.2995109 C8.2753042,12.2995109 7.95184418,12.616745 7.95184418,13.0087947 L7.95184418,13.3748853 L4.99868737,14.8454377 C4.88646239,14.5958305 4.6328719,14.4221705 4.33740036,14.4221705 C3.93824269,14.4221705 3.6147149,14.7394046 3.6147149,15.1314543 L3.6147149,15.5349526 L0.396379149,17.1386289 C0.153360577,17.2603041 0.000338843519,17.5047195 0.000338843519,17.7719656 L0.000338843519,20.6122292 C0.000338843519,20.825427 0.0982646207,21.0282412 0.267211999,21.16243 C0.396921299,21.2663997 0.55841412,21.3215795 0.723092071,21.3215795 C0.772359918,21.3215795 0.821559997,21.3174527 0.870217927,21.3070025 L14.0822689,18.6092479 C14.1368227,20.427187 14.1908344,22.2097818 14.2394923,23.8030744 L10.4291291,26.41969 C10.2353784,26.5528138 10.1204427,26.770205 10.1204427,27.0021067 L10.1204427,29.8413719 C10.1204427,30.0702118 10.2326677,30.285473 10.4222167,30.4185969 C10.5466401,30.5059261 10.6938337,30.5517207 10.8431282,30.5517207 C10.9209266,30.5517207 10.999335,30.5392071 11.075507,30.5143129 L14.410405,29.4025292 C14.4177918,29.6417527 14.4226033,29.7998373 14.4247042,29.8632708 C14.4363604,30.2470668 14.7566353,30.5517873 15.1473896,30.5517873 L16.5932349,30.5517873 L16.5932349,30.5517873 C16.5932349,30.9439035 16.9166949,31.2620695 17.3159204,31.2620695 C17.7151458,31.2620695 18.0386058,30.9439035 18.0386058,30.5517873 L18.0386058,30.5517873 L19.4844511,30.5517873 C19.8752055,30.5517873 20.1949382,30.2470668 20.2076787,29.8632708 C20.208763,29.7977739 20.214049,29.6323675 20.2225201,29.3806969 L23.6214594,30.5143129 C23.6976992,30.5392736 23.7760398,30.5517207 23.8544482,30.5517207 C24.0037427,30.5517207 24.1509363,30.5059261 24.2759018,30.4185969 C24.4643666,30.285473 24.5766593,30.0702118 24.5766593,29.8413719 L24.5766593,27.0021067 C24.5766593,26.770205 24.4622657,26.5528138 24.268515,26.41969 L20.3941104,23.7594098 C20.4417518,22.1733724 20.4957635,20.4011613 20.5497752,18.5957359 L33.8268841,21.3070025 C33.8756098,21.3173861 33.925352,21.3215795 33.975162,21.3215795 C34.1392978,21.3215795 34.301265,21.2664663 34.4304999,21.16243 C34.5999217,21.0282412 34.6973731,20.8254936 34.6973731,20.6122292 L34.6973731,17.7719656 C34.6972376,17.5047195 34.544758,17.2603041 34.3011972,17.1386289 Z M23.1323049,27.3712591 L23.1323049,28.8511968 L20.3305434,27.918265 L20.4025138,25.4971418 L23.1323049,27.3712591 Z M1.44618414,19.738604 L1.44618414,18.2077464 L13.886824,12.0103659 C13.9339232,13.6276209 13.9863762,15.3945735 14.0393035,17.167783 L1.44618414,19.738604 Z M11.5658136,28.8511968 L11.5658136,27.3712591 L14.2913354,25.5003367 C14.3193916,26.4248818 14.3442627,27.2443921 14.3649322,27.9183315 L11.5658136,28.8511968 Z M18.0386736,29.1320216 L18.0386736,25.5814092 C18.0386736,25.1892929 17.7152136,24.8721254 17.3159881,24.8721254 C16.9167627,24.8721254 16.5933027,25.1893595 16.5933027,25.5814092 L16.5933027,29.1320216 L15.8489312,29.1320216 C15.842561,28.9354642 15.8351742,28.7004341 15.8272453,28.431058 C15.8272453,28.4206743 15.8277874,28.4112891 15.8277874,28.4009054 L15.7012632,24.1410758 C15.7001789,24.1140517 15.697536,24.0870275 15.6938764,24.0610018 C15.4799984,17.026339 15.1475252,5.94191586 15.1475252,4.9924101 C15.1475252,3.79329715 16.1290871,1.4428627 17.3161237,1.4428627 C18.5031603,1.4428627 19.4846544,3.79329715 19.4846544,4.9924101 C19.4846544,6.24876631 18.9034023,25.2476677 18.7827062,29.1320881 L18.0386736,29.1320881 L18.0386736,29.1320216 Z M33.2507823,19.738604 L20.5931471,17.154271 C20.6460745,15.3737397 20.6990018,13.5995317 20.7456267,11.977085 L33.2507823,18.2077464 L33.2507823,19.738604 Z" id="Shape" fill-rule="nonzero"></path>
                        </g>
                    </g>
                </g>
            </g>
        </g>
    </g>
</svg>