<?xml version="1.0" encoding="UTF-8"?>
<svg width="30px" height="30px" viewBox="0 0 30 30" version="1.1" xmlns="http://www.w3.org/2000/svg" xmlns:xlink="http://www.w3.org/1999/xlink">
    <!-- Generator: Sketch 54.1 (76490) - https://sketchapp.com -->
    <title>DatePickerButton</title>
    <desc>Created with Sketch.</desc>
    <g id="Web" stroke="none" stroke-width="1" fill="none" fill-rule="evenodd">
        <g id="Desktop-HD-Copy" transform="translate(-883.000000, -130.000000)">
            <g id="DropdwonMenu" transform="translate(858.000000, 67.000000)">
                <g id="DatePickerButton" transform="translate(25.000000, 63.000000)">
                    <circle id="Oval" fill="#21996F" cx="15" cy="15" r="15"></circle>
                    <g id="noun_date_1146237" transform="translate(7.500000, 6.666667)" fill="#FFFFFF" fill-rule="nonzero">
                        <path d="M13.0303385,1.60353535 L12.1421875,1.60353535 L12.1421875,0.962121212 C12.1421875,0.543723674 11.8098988,0.204545455 11.4,0.204545455 C10.9901012,0.204545455 10.6578125,0.543723674 10.6578125,0.962121212 L10.6578125,1.60353535 L5.17552083,1.60353535 L5.17552083,0.962121212 C5.17552083,0.543723674 4.84323217,0.204545455 4.43333333,0.204545455 C4.0234345,0.204545455 3.69114583,0.543723674 3.69114583,0.962121212 L3.69114583,1.60353535 L2.80299479,1.60353535 C1.30003239,1.60353535 0.081640625,2.84718883 0.081640625,4.38131313 L0.081640625,13.6843434 C0.081640625,15.2184677 1.30003239,16.4621212 2.80299479,16.4621212 L13.0303385,16.4621212 C14.5333009,16.4621212 15.7516927,15.2184677 15.7516927,13.6843434 L15.7516927,4.38131313 C15.7516927,2.84718883 14.5333009,1.60353535 13.0303385,1.60353535 Z M2.80546875,3.11868687 L3.69361979,3.11868687 L3.69361979,4.26515152 C3.69361979,4.68354905 4.02590845,5.02272727 4.43580729,5.02272727 C4.84570613,5.02272727 5.17799479,4.68354905 5.17799479,4.26515152 L5.17799479,3.11868687 L10.6578125,3.11868687 L10.6578125,4.26515152 C10.6578125,4.68354905 10.9901012,5.02272727 11.4,5.02272727 C11.8098988,5.02272727 12.1421875,4.68354905 12.1421875,4.26515152 L12.1421875,3.11868687 L13.0303385,3.11868687 C13.7135033,3.11868687 14.2673177,3.6839839 14.2673177,4.38131313 L14.2673177,6.67929293 L1.56601562,6.67929293 L1.56601562,4.38131313 C1.56601562,4.04644383 1.69633984,3.7252899 1.92831843,3.48850154 C2.16029703,3.25171318 2.47492752,3.11868687 2.80299479,3.11868687 L2.80546875,3.11868687 Z M13.0303385,14.9469697 L2.80299479,14.9469697 C2.11983006,14.9469697 1.56601562,14.3816727 1.56601562,13.6843434 L1.56601562,8.19444444 L14.2673177,8.19444444 L14.2673177,13.6843434 C14.2673177,14.3816727 13.7135033,14.9469697 13.0303385,14.9469697 Z" id="Shape"></path>
                    </g>
                </g>
            </g>
        </g>
    </g>
</svg>