<?xml version="1.0" encoding="UTF-8"?>
<svg width="39px" height="39px" viewBox="0 0 39 39" version="1.1" xmlns="http://www.w3.org/2000/svg" xmlns:xlink="http://www.w3.org/1999/xlink">
    <!-- Generator: Sketch 57.1 (83088) - https://sketch.com -->
    <title>twitter-logo-on-black-background</title>
    <desc>Created with Sketch.</desc>
    <g id="Web" stroke="none" stroke-width="1" fill="none" fill-rule="evenodd">
        <g id="Desktop-HD-Copy-2" transform="translate(-554.000000, -678.000000)" fill="#FFFFFF" fill-rule="nonzero">
            <g id="twitter-logo-on-black-background" transform="translate(554.000000, 678.000000)">
                <path d="M34.56,0 L3.84,0 C1.728,0 0,1.728 0,3.84 L0,34.56 C0,36.672 1.728,38.4 3.84,38.4 L34.56,38.4 C36.672,38.4 38.4,36.672 38.4,34.56 L38.4,3.84 C38.4,1.728 36.672,0 34.56,0 Z M30.144,14.016 C29.952,22.848 24.384,28.992 15.936,29.376 C12.48,29.568 9.984,28.416 7.68,27.072 C10.176,27.4560753 13.44,26.4960753 15.168,24.96 C12.672,24.768 11.136,23.424 10.368,21.312 C11.136,21.504 11.904,21.312 12.48,21.312 C10.176,20.544 8.64,19.2 8.448,16.128 C9.024,16.512 9.792,16.704 10.56,16.704 C8.832,15.744 7.68,12.096 9.024,9.792 C11.52,12.48 14.592,14.784 19.584,15.168 C18.24,9.792 25.5360753,6.912 28.4160753,10.56 C29.7600753,10.368 30.7200753,9.792 31.6800753,9.408 C31.2960753,10.752 30.5280753,11.52 29.5680753,12.288 C30.5280753,12.096 31.4880753,11.904 32.2560753,11.52 C32.064,12.48 31.104,13.248 30.144,14.016 Z" id="Shape"></path>
            </g>
        </g>
    </g>
</svg>