<?xml version="1.0" encoding="UTF-8"?>
<svg width="32px" height="32px" viewBox="0 0 32 32" version="1.1" xmlns="http://www.w3.org/2000/svg" xmlns:xlink="http://www.w3.org/1999/xlink">
    <!-- Generator: Sketch 54.1 (76490) - https://sketchapp.com -->
    <title>linkedin-logo</title>
    <desc>Created with Sketch.</desc>
    <g id="Web" stroke="none" stroke-width="1" fill="none" fill-rule="evenodd">
        <g id="Desktop-HD-Copy" transform="translate(-1147.000000, -5497.000000)" fill="#000000" fill-rule="nonzero">
            <g id="linkedin-logo" transform="translate(1147.000000, 5497.000000)">
                <path d="M29.6370861,0 L2.36440191,0 C1.05847533,0 0,1.02617421 0,2.29272897 L0,29.7063039 C0,30.972933 1.05884733,32 2.36440191,32 L29.6370861,32 C30.9427151,32 32,30.9722634 32,29.7063039 L32,2.29272897 C32,1.0265462 30.9427151,0 29.6370861,0 Z M9.70148775,26.786175 L4.86651647,26.786175 L4.86651647,12.3385676 L9.70148775,12.3385676 L9.70148775,26.786175 Z M7.2844857,10.3647836 L7.25197332,10.3647836 C5.63059475,10.3647836 4.57955933,9.25595302 4.57955933,7.86775722 C4.57955933,6.4515877 5.66147036,5.37281397 7.31498932,5.37281397 C8.96865707,5.37281397 9.98584093,6.45129011 10.0179813,7.86775722 C10.0179813,9.25625061 8.96902907,10.3647836 7.2844857,10.3647836 Z M27.1301356,26.786175 L22.2967267,26.786175 L22.2967267,19.0562032 C22.2967267,17.1138897 21.5964084,15.7885603 19.848477,15.7885603 C18.5113028,15.7885603 17.7175393,16.6826778 17.3689798,17.54592 C17.239823,17.854226 17.2078314,18.2854379 17.2078314,18.7160547 L17.2078314,26.7858774 L12.3753153,26.7858774 C12.3753153,26.7858774 12.4385545,13.6933586 12.3753153,12.3383444 L17.2085754,12.3383444 L17.2085754,14.3866009 C17.8501929,13.4023873 18.9967567,11.998419 21.5634496,11.998419 C24.7447531,11.998419 27.1301356,14.0621504 27.1301356,18.5018623 L27.1301356,26.786175 Z M17.1847521,14.4531652 C17.1958521,14.4349652 17.2113521,14.4130652 17.2267521,14.3917652 L17.2267521,14.4531652 L17.1847521,14.4531652 Z" id="LinkedIn__x28_alt_x29_"></path>
            </g>
        </g>
    </g>
</svg>