<?xml version="1.0" encoding="UTF-8"?>
<svg width="52px" height="89px" viewBox="0 0 52 89" version="1.1" xmlns="http://www.w3.org/2000/svg" xmlns:xlink="http://www.w3.org/1999/xlink">
    <!-- Generator: Sketch 57.1 (83088) - https://sketch.com -->
    <title>Group</title>
    <desc>Created with Sketch.</desc>
    <g id="Web" stroke="none" stroke-width="1" fill="none" fill-rule="evenodd">
        <g id="Desktop-HD-Copy" transform="translate(-694.000000, -5584.000000)" fill="#FFFFFF" fill-rule="nonzero">
            <g id="Group" transform="translate(694.000000, 5584.000000)">
                <path d="M40.4,-7.10542736e-15 L11,-7.10542736e-15 C4.92486775,-7.10542736e-15 -1.84741111e-13,4.92486775 -1.84741111e-13,11 L-1.84741111e-13,78 C-1.84741111e-13,80.9173814 1.15892524,83.7152744 3.22182541,85.7781746 C5.28472557,87.8410748 8.08261861,89 11,89 L40.4,89 C46.4751322,89 51.4,84.0751322 51.4,78 L51.4,11 C51.4,8.08261861 50.2410748,5.28472557 48.1781746,3.22182541 C46.1152744,1.15892524 43.3173814,-7.10542736e-15 40.4,-7.10542736e-15 Z M11.1,6 L40.4,6 C43.1614237,6 45.4,8.23857625 45.4,11 L45.4,13.5 L6,13.5 L6,11 C6,8.23857625 8.23857625,6 11,6 L11.1,6 Z M45.4,19.5 L45.4,63.7 L6,63.7 L6,19.5 L45.4,19.5 Z M40.4,82.9 L11,82.9 C8.23857625,82.9 6,80.6614237 6,77.9 L6,69.7 L45.4,69.7 L45.4,78 C45.4,80.7614237 43.1614237,83 40.4,83 L40.4,82.9 Z" id="Shape"></path>
                <path d="M28.1,73.3 L22.3,73.3 C20.6431458,73.3 19.3,74.6431458 19.3,76.3 C19.3,77.9568542 20.6431458,79.3 22.3,79.3 L28.1,79.3 C29.7568542,79.3 31.1,77.9568542 31.1,76.3 C31.1,74.6431458 29.7568542,73.3 28.1,73.3 L28.1,73.3 Z" id="Path"></path>
            </g>
        </g>
    </g>
</svg>