<?xml version="1.0" encoding="UTF-8"?>
<svg width="86px" height="86px" viewBox="0 0 86 86" version="1.1" xmlns="http://www.w3.org/2000/svg" xmlns:xlink="http://www.w3.org/1999/xlink">
    <!-- Generator: Sketch 57.1 (83088) - https://sketch.com -->
    <title>Shape</title>
    <desc>Created with Sketch.</desc>
    <g id="Web" stroke="none" stroke-width="1" fill="none" fill-rule="evenodd">
        <g id="Desktop-HD-Copy" transform="translate(-310.000000, -5581.000000)" fill="#FFFFFF" fill-rule="nonzero">
            <path d="M394.24,5641.483 L377.39,5632.951 L393.34,5624.705 C393.848,5624.441 393.848,5624.017 393.337,5623.76 L375.349,5614.653 L394.261,5604.875 C395.18,5604.398 395.725,5603.552 395.72,5602.611 C395.714,5601.672 395.159,5600.834 394.24,5600.37 L357.356,5581.698 C356.673,5581.353 355.96,5581.28 355.481,5581.28 C355.041,5581.28 354.383,5581.342 353.746,5581.64 L311.818,5601.269 C310.864,5601.716 310.289,5602.552 310.279893,5603.504 C310.271,5604.457 310.832,5605.304 311.779,5605.77 L331.918,5615.673 L312.667,5624.685 C312.153,5624.926 312.151,5625.328 312.662,5625.579 L329.756,5633.985 L311.818,5642.381 C310.863,5642.828 310.288,5643.664 310.279893,5644.616 C310.272,5645.569 310.833,5646.416 311.779,5646.88 L351.333,5666.332 C351.984,5666.653 352.66,5666.72 353.112,5666.72 C353.588,5666.72 354.298,5666.647 354.984,5666.295 L394.263,5645.987 C395.182,5645.51 395.727,5644.664 395.722034,5643.723 C395.714,5642.785 395.16,5641.946 394.24,5641.483 Z M355.375,5585.289 C355.385,5585.287 355.424,5585.28 355.481,5585.28 C355.542,5585.28 355.587,5585.288 355.563,5585.274 L389.872,5602.642 L353.215,5621.6 C353.205,5621.602 353.167,5621.61 353.112,5621.61 L353.098,5621.631 L316.353,5603.562 L355.375,5585.289 Z M353.22,5662.71 C353.209,5662.713 353.169,5662.72 353.111,5662.72 L353.099,5662.743 L316.355,5644.673 L333.73,5636.539 L351.331,5645.194 C351.983,5645.515 352.659,5645.583 353.111,5645.583 C353.588,5645.583 354.299,5645.509 354.981,5645.157 L373.615,5635.524 L389.87,5643.754 L353.22,5662.71 Z" id="Shape"></path>
        </g>
    </g>
</svg>