<?xml version="1.0" encoding="UTF-8"?>
<svg width="105px" height="88px" viewBox="0 0 105 88" version="1.1" xmlns="http://www.w3.org/2000/svg" xmlns:xlink="http://www.w3.org/1999/xlink">
    <!-- Generator: Sketch 57.1 (83088) - https://sketch.com -->
    <title>Group</title>
    <desc>Created with Sketch.</desc>
    <g id="Web" stroke="none" stroke-width="1" fill="none" fill-rule="evenodd">
        <g id="Desktop-HD-Copy" transform="translate(-1029.000000, -5585.000000)" fill="#FFFFFF" fill-rule="nonzero">
            <g id="Group" transform="translate(1029.184300, 5585.000000)">
                <g>
                    <path d="M96.6552901,0.109215017 L8.19112628,0.109215017 C3.93174061,0.109215017 0.546075085,3.60409556 0.546075085,7.75426621 L0.546075085,79.6177474 C0.546075085,83.8771331 3.93174061,87.2627986 8.19112628,87.2627986 L96.5460751,87.2627986 C100.805461,87.2627986 104.191126,83.8771331 104.191126,79.6177474 L104.191126,7.75426621 C104.300341,3.49488055 100.805461,0.109215017 96.6552901,0.109215017 Z M33.3105802,7.97269625 C35.1672355,7.97269625 36.5870307,9.50170648 36.5870307,11.2491468 C36.5870307,13.105802 35.0580205,14.5255973 33.3105802,14.5255973 C31.4539249,14.5255973 30.0341297,12.996587 30.0341297,11.2491468 C30.0341297,9.39249147 31.4539249,7.97269625 33.3105802,7.97269625 Z M23.2627986,7.97269625 C25.1194539,7.97269625 26.5392491,9.50170648 26.5392491,11.2491468 C26.5392491,13.105802 25.0102389,14.5255973 23.2627986,14.5255973 C21.4061433,14.5255973 19.9863481,12.996587 19.9863481,11.2491468 C19.9863481,9.39249147 21.5153584,7.97269625 23.2627986,7.97269625 Z M13.2150171,7.97269625 C15.0716724,7.97269625 16.4914676,9.50170648 16.4914676,11.2491468 C16.4914676,13.105802 14.9624573,14.5255973 13.2150171,14.5255973 C11.3583618,14.5255973 9.93856655,12.996587 9.93856655,11.2491468 C9.93856655,9.39249147 11.4675768,7.97269625 13.2150171,7.97269625 Z M94.6894198,77.105802 C94.6894198,77.4334471 94.4709898,77.6518771 94.1433447,77.6518771 L10.7030717,77.6518771 C10.3754266,77.6518771 10.1569966,77.4334471 10.1569966,77.105802 L10.1569966,22.7167235 L94.5802048,22.7167235 L94.5802048,77.105802 L94.6894198,77.105802 Z" id="Shape"></path>
                    <path d="M35.6040956,62.5802048 C36.3686007,63.3447099 37.3515358,63.78157 38.443686,63.78157 C39.3174061,63.78157 40.3003413,63.4539249 41.0648464,62.7986348 C42.5938567,61.3788396 42.7030717,58.9761092 41.2832765,57.447099 L33.9658703,49.5836177 L41.2832765,41.7201365 C42.7030717,40.1911263 42.5938567,37.7883959 41.0648464,36.368603 C39.5358362,34.9488055 37.1331058,35.0580205 35.7133106,36.5870307 L25.9931741,46.9624573 C24.6825939,48.3822526 24.6825939,50.6757679 25.9931741,52.0955631 L35.6040956,62.5802048 Z" id="Path"></path>
                    <path d="M63.890785,62.7986348 C64.6552901,63.4539249 65.5290102,63.78157 66.5119454,63.78157 C67.4948805,63.78157 68.5870307,63.3447099 69.3515358,62.5802048 L78.9624573,52.0955631 C80.2730375,50.6757679 80.2730375,48.3822526 78.9624573,46.9624573 L69.3515358,36.4778157 C67.9317406,34.9488055 65.5290102,34.8395904 64,36.259388 C62.4709898,37.6791809 62.3617747,40.0819113 63.78157,41.6109215 L71.0989761,49.4744027 L63.78157,57.337884 C62.2525597,58.9761092 62.2525597,61.3788396 63.890785,62.7986348 Z" id="Path"></path>
                    <path d="M48.9283276,68.5870307 C49.1467577,68.5870307 49.3651877,68.6962457 49.6928328,68.6962457 C51.440273,68.6962457 53.0784983,67.3856655 53.4061433,65.6382253 L58.9761092,36.1501706 C59.4129693,34.0750853 57.9931741,32.109215 55.9180887,31.6723549 C53.8430034,31.2354949 51.8771331,32.6552901 51.440273,34.7303754 L45.8703072,64.109215 C45.5426621,66.1843003 46.8532423,68.1501706 48.9283276,68.5870307 Z" id="Path"></path>
                </g>
            </g>
        </g>
    </g>
</svg>